<svg version="1.1" viewBox="0.0 0.0 600.0 371.0" fill="none" stroke="none" stroke-linecap="square" stroke-miterlimit="10" width="600" height="371" xmlns:xlink="http://www.w3.org/1999/xlink" xmlns="http://www.w3.org/2000/svg"><path fill="#ffffff" d="M0 0L600.0 0L600.0 371.0L0 371.0L0 0Z" fill-rule="nonzero"/><path stroke="#cccccc" stroke-width="1.0" stroke-linecap="butt" d="M84.5 25.5L84.5 300.5" fill-rule="nonzero"/><path stroke="#cccccc" stroke-width="1.0" stroke-linecap="butt" d="M167.5 25.5L167.5 300.5" fill-rule="nonzero"/><path stroke="#cccccc" stroke-width="1.0" stroke-linecap="butt" d="M250.5 25.5L250.5 300.5" fill-rule="nonzero"/><path stroke="#cccccc" stroke-width="1.0" stroke-linecap="butt" d="M333.5 25.5L333.5 300.5" fill-rule="nonzero"/><path stroke="#cccccc" stroke-width="1.0" stroke-linecap="butt" d="M416.5 25.5L416.5 300.5" fill-rule="nonzero"/><path stroke="#cccccc" stroke-width="1.0" stroke-linecap="butt" d="M499.5 25.5L499.5 300.5" fill-rule="nonzero"/><path stroke="#333333" stroke-width="1.0" stroke-linecap="butt" d="M84.5 300.5L499.5 300.5" fill-rule="nonzero"/><path stroke="#cccccc" stroke-width="1.0" stroke-linecap="butt" d="M84.5 231.5L499.5 231.5" fill-rule="nonzero"/><path stroke="#cccccc" stroke-width="1.0" stroke-linecap="butt" d="M84.5 163.5L499.5 163.5" fill-rule="nonzero"/><path stroke="#cccccc" stroke-width="1.0" stroke-linecap="butt" d="M84.5 94.5L499.5 94.5" fill-rule="nonzero"/><path stroke="#cccccc" stroke-width="1.0" stroke-linecap="butt" d="M84.5 25.5L499.5 25.5" fill-rule="nonzero"/><clipPath id="id_0"><path d="M84.55 25.55L499.19 25.55L499.19 300.45L84.55 300.45L84.55 25.55Z" clip-rule="nonzero"/></clipPath><path stroke="#4285f4" stroke-width="2.0" stroke-linecap="butt" clip-path="url(#id_0)" d="M84.55 235.54831L167.478 190.53047L250.406 169.13177L333.334 119.66424L416.262 92.99785L499.19 57.513172" fill-rule="nonzero"/><path stroke="#ea4335" stroke-width="2.0" stroke-linecap="butt" clip-path="url(#id_0)" d="M84.55 262.75677L167.478 243.60355L250.406 197.13127L333.334 166.88434L416.262 142.80801L499.19 125.69068" fill-rule="nonzero"/><path fill="#000000" fill-opacity="0.0" clip-path="url(#id_0)" d="M87.55 235.54831C87.55 237.20517 86.206856 238.54831 84.55 238.54831C82.89314 238.54831 81.55 237.20517 81.55 235.54831C81.55 233.89146 82.89314 232.54831 84.55 232.54831C86.206856 232.54831 87.55 233.89146 87.55 235.54831Z" fill-rule="nonzero"/><path fill="#000000" fill-opacity="0.0" clip-path="url(#id_0)" d="M170.478 190.53047C170.478 192.18732 169.13486 193.53047 167.478 193.53047C165.82115 193.53047 164.478 192.18732 164.478 190.53047C164.478 188.87361 165.82115 187.53047 167.478 187.53047C169.13486 187.53047 170.478 188.87361 170.478 190.53047Z" fill-rule="nonzero"/><path fill="#000000" fill-opacity="0.0" clip-path="url(#id_0)" d="M253.406 169.13177C253.406 170.78864 252.06285 172.13177 250.406 172.13177C248.74915 172.13177 247.406 170.78864 247.406 169.13177C247.406 167.47491 248.74915 166.13177 250.406 166.13177C252.06285 166.13177 253.406 167.47491 253.406 169.13177Z" fill-rule="nonzero"/><path fill="#000000" fill-opacity="0.0" clip-path="url(#id_0)" d="M336.334 119.66424C336.334 121.32109 334.99084 122.66424 333.334 122.66424C331.67715 122.66424 330.334 121.32109 330.334 119.66424C330.334 118.007385 331.67715 116.66424 333.334 116.66424C334.99084 116.66424 336.334 118.007385 336.334 119.66424Z" fill-rule="nonzero"/><path fill="#000000" fill-opacity="0.0" clip-path="url(#id_0)" d="M419.262 92.99785C419.262 94.6547 417.91885 95.99785 416.262 95.99785C414.60513 95.99785 413.262 94.6547 413.262 92.99785C413.262 91.340996 414.60513 89.99785 416.262 89.99785C417.91885 89.99785 419.262 91.340996 419.262 92.99785Z" fill-rule="nonzero"/><path fill="#000000" fill-opacity="0.0" clip-path="url(#id_0)" d="M502.19 57.513172C502.19 59.17003 500.84686 60.513172 499.19 60.513172C497.53314 60.513172 496.19 59.17003 496.19 57.513172C496.19 55.85632 497.53314 54.513172 499.19 54.513172C500.84686 54.513172 502.19 55.85632 502.19 57.513172Z" fill-rule="nonzero"/><path fill="#000000" fill-opacity="0.0" clip-path="url(#id_0)" d="M87.55 262.75677C87.55 264.41364 86.206856 265.75677 84.55 265.75677C82.89314 265.75677 81.55 264.41364 81.55 262.75677C81.55 261.0999 82.89314 259.75677 84.55 259.75677C86.206856 259.75677 87.55 261.0999 87.55 262.75677Z" fill-rule="nonzero"/><path fill="#000000" fill-opacity="0.0" clip-path="url(#id_0)" d="M170.478 243.60355C170.478 245.2604 169.13486 246.60355 167.478 246.60355C165.82115 246.60355 164.478 245.2604 164.478 243.60355C164.478 241.94669 165.82115 240.60355 167.478 240.60355C169.13486 240.60355 170.478 241.94669 170.478 243.60355Z" fill-rule="nonzero"/><path fill="#000000" fill-opacity="0.0" clip-path="url(#id_0)" d="M253.406 197.13127C253.406 198.78813 252.06285 200.13127 250.406 200.13127C248.74915 200.13127 247.406 198.78813 247.406 197.13127C247.406 195.47441 248.74915 194.13127 250.406 194.13127C252.06285 194.13127 253.406 195.47441 253.406 197.13127Z" fill-rule="nonzero"/><path fill="#000000" fill-opacity="0.0" clip-path="url(#id_0)" d="M336.334 166.88434C336.334 168.54118 334.99084 169.88434 333.334 169.88434C331.67715 169.88434 330.334 168.54118 330.334 166.88434C330.334 165.22748 331.67715 163.88434 333.334 163.88434C334.99084 163.88434 336.334 165.22748 336.334 166.88434Z" fill-rule="nonzero"/><path fill="#000000" fill-opacity="0.0" clip-path="url(#id_0)" d="M419.262 142.80801C419.262 144.46487 417.91885 145.80801 416.262 145.80801C414.60513 145.80801 413.262 144.46487 413.262 142.80801C413.262 141.15115 414.60513 139.80801 416.262 139.80801C417.91885 139.80801 419.262 141.15115 419.262 142.80801Z" fill-rule="nonzero"/><path fill="#000000" fill-opacity="0.0" clip-path="url(#id_0)" d="M502.19 125.69068C502.19 127.347534 500.84686 128.69069 499.19 128.69069C497.53314 128.69069 496.19 127.347534 496.19 125.69068C496.19 124.03383 497.53314 122.69068 499.19 122.69068C500.84686 122.69068 502.19 124.03383 502.19 125.69068Z" fill-rule="nonzero"/><path fill="#000000" d="M245.71375 346.66876L246.83875 346.5594L246.82312 346.8719Q246.82312 347.35626 247.0575 347.77814Q247.29187 348.1844 247.8075 348.41876Q248.33875 348.6375 249.07312 348.6375Q250.10437 348.6375 250.63562 348.1844Q251.1825 347.73126 251.1825 347.15314Q251.1825 346.7469 250.90125 346.41876Q250.60437 346.09064 249.29187 345.52814Q248.27625 345.09064 247.91687 344.85626Q247.33875 344.48126 247.0575 344.02814Q246.77625 343.575 246.77625 342.9969Q246.77625 342.34064 247.13562 341.8094Q247.51062 341.27814 248.19812 340.9969Q248.90125 340.71564 249.79187 340.71564Q250.83875 340.71564 251.5575 341.075Q252.27625 341.41876 252.60437 342.0125Q252.9325 342.59064 252.9325 343.1219Q252.9325 343.16876 252.91687 343.29376L251.8075 343.3875Q251.8075 343.02814 251.745 342.8094Q251.63562 342.46564 251.38562 342.21564Q251.13562 341.96564 250.69812 341.825Q250.27625 341.66876 249.745 341.66876Q248.8075 341.66876 248.29187 342.09064Q247.88562 342.41876 247.88562 342.95Q247.88562 343.2625 248.04187 343.5125Q248.21375 343.7625 248.65125 343.9969Q248.94812 344.16876 250.08875 344.66876Q251.01062 345.09064 251.37 345.325Q251.83875 345.6219 252.08875 346.075Q252.33875 346.5125 252.33875 347.075Q252.33875 347.77814 251.91687 348.3719Q251.495 348.95 250.745 349.27814Q249.995 349.59064 249.02625 349.59064Q247.57312 349.59064 246.63562 348.96564Q245.71375 348.325 245.71375 346.66876ZM252.745 351.84064L254.54187 343.23126L255.52625 343.23126L255.33875 344.09064Q255.88562 343.52814 256.3075 343.3094Q256.745 343.09064 257.22937 343.09064Q258.12 343.09064 258.69812 343.7469Q259.29187 344.3875 259.29187 345.59064Q259.29187 346.5594 258.96375 347.35626Q258.65125 348.15314 258.1825 348.65314Q257.71375 349.1375 257.22937 349.3719Q256.745 349.59064 256.245 349.59064Q255.12 349.59064 254.51062 348.45L253.8075 351.84064L252.745 351.84064ZM254.83875 346.90314Q254.83875 347.60626 254.94812 347.8719Q255.08875 348.2469 255.41687 348.48126Q255.76062 348.71564 256.19812 348.71564Q257.12 348.71564 257.6825 347.7Q258.245 346.66876 258.245 345.59064Q258.245 344.8094 257.85437 344.3719Q257.47937 343.9344 256.91687 343.9344Q256.51062 343.9344 256.16687 344.15314Q255.82312 344.3719 255.52625 344.79376Q255.22937 345.21564 255.02625 345.84064Q254.83875 346.45 254.83875 346.90314ZM260.27625 349.45L261.57312 343.23126L262.51062 343.23126L262.245 344.4969Q262.72937 343.77814 263.1825 343.4344Q263.65125 343.09064 264.12 343.09064Q264.44812 343.09064 264.90125 343.3094L264.46375 344.29376Q264.19812 344.10626 263.87 344.10626Q263.3075 344.10626 262.71375 344.73126Q262.13562 345.34064 261.8075 346.95L261.27625 349.45L260.27625 349.45ZM268.83875 347.34064L269.87 347.4344Q269.65125 348.2 268.83875 348.90314Q268.04187 349.59064 266.94812 349.59064Q266.245 349.59064 265.66687 349.27814Q265.08875 348.95 264.79187 348.34064Q264.495 347.73126 264.495 346.95Q264.495 345.9344 264.96375 344.98126Q265.4325 344.0125 266.1825 343.5594Q266.9325 343.09064 267.8075 343.09064Q268.91687 343.09064 269.57312 343.77814Q270.245 344.46564 270.245 345.66876Q270.245 346.1219 270.16687 346.60626L265.58875 346.60626Q265.5575 346.77814 265.5575 346.9344Q265.5575 347.8094 265.96375 348.2625Q266.37 348.71564 266.94812 348.71564Q267.495 348.71564 268.01062 348.3719Q268.54187 348.0125 268.83875 347.34064ZM265.76062 345.79376L269.245 345.79376Q269.26062 345.6219 269.26062 345.5594Q269.26062 344.7625 268.85437 344.34064Q268.46375 343.91876 267.83875 343.91876Q267.15125 343.91876 266.58875 344.3875Q266.02625 344.85626 265.76062 345.79376ZM275.46375 348.66876Q274.91687 349.15314 274.40125 349.3719Q273.90125 349.59064 273.3075 349.59064Q272.44812 349.59064 271.91687 349.09064Q271.40125 348.575 271.40125 347.77814Q271.40125 347.2625 271.63562 346.8719Q271.87 346.46564 272.26062 346.23126Q272.65125 345.98126 273.22937 345.8719Q273.58875 345.79376 274.58875 345.7625Q275.58875 345.71564 276.01062 345.54376Q276.13562 345.10626 276.13562 344.825Q276.13562 344.45 275.87 344.2469Q275.495 343.95 274.79187 343.95Q274.12 343.95 273.69812 344.2469Q273.27625 344.54376 273.07312 345.09064L272.01062 344.9969Q272.33875 344.075 273.04187 343.59064Q273.76062 343.09064 274.83875 343.09064Q275.995 343.09064 276.66687 343.6375Q277.1825 344.04376 277.1825 344.7Q277.1825 345.2 277.04187 345.85626L276.69812 347.40314Q276.52625 348.1375 276.52625 348.60626Q276.52625 348.90314 276.66687 349.45L275.58875 349.45Q275.495 349.1375 275.46375 348.66876ZM275.85437 346.29376Q275.63562 346.3875 275.37 346.4344Q275.12 346.48126 274.52625 346.52814Q273.60437 346.60626 273.21375 346.7469Q272.83875 346.8719 272.63562 347.15314Q272.44812 347.41876 272.44812 347.7469Q272.44812 348.2 272.76062 348.48126Q273.07312 348.7625 273.63562 348.7625Q274.16687 348.7625 274.65125 348.4969Q275.13562 348.21564 275.41687 347.71564Q275.69812 347.21564 275.85437 346.29376ZM282.46375 348.54376Q281.5575 349.59064 280.57312 349.59064Q279.6825 349.59064 279.08875 348.9344Q278.51062 348.27814 278.51062 347.04376Q278.51062 345.90314 278.96375 344.96564Q279.4325 344.02814 280.13562 343.5594Q280.83875 343.09064 281.54187 343.09064Q282.69812 343.09064 283.29187 344.2L283.995 340.85626L285.04187 340.85626L283.26062 349.45L282.27625 349.45L282.46375 348.54376ZM279.5575 346.84064Q279.5575 347.4969 279.6825 347.8719Q279.82312 348.2469 280.12 348.4969Q280.4325 348.7469 280.87 348.7469Q281.58875 348.7469 282.1825 347.9969Q282.96375 346.9969 282.96375 345.52814Q282.96375 344.79376 282.57312 344.3875Q282.1825 343.96564 281.60437 343.96564Q281.22937 343.96564 280.90125 344.1375Q280.58875 344.29376 280.27625 344.7Q279.97937 345.10626 279.76062 345.7469Q279.5575 346.3719 279.5575 346.84064ZM286.77625 342.0594L287.02625 340.85626L288.08875 340.85626L287.82312 342.0594L286.77625 342.0594ZM285.22937 349.45L286.52625 343.23126L287.58875 343.23126L286.29187 349.45L285.22937 349.45ZM288.27625 349.45L289.57312 343.23126L290.52625 343.23126L290.3075 344.3094Q290.9325 343.66876 291.47937 343.3875Q292.02625 343.09064 292.58875 343.09064Q293.33875 343.09064 293.76062 343.4969Q294.19812 343.90314 294.19812 344.59064Q294.19812 344.9344 294.0575 345.6844L293.26062 349.45L292.19812 349.45L293.02625 345.5125Q293.15125 344.9344 293.15125 344.65314Q293.15125 344.34064 292.9325 344.15314Q292.72937 343.96564 292.32312 343.96564Q291.51062 343.96564 290.87 344.5594Q290.22937 345.1375 289.9325 346.5594L289.32312 349.45L288.27625 349.45ZM295.21375 350.0125L296.27625 350.10626Q296.27625 350.48126 296.37 350.65314Q296.46375 350.84064 296.6825 350.9344Q296.97937 351.075 297.4325 351.075Q298.38562 351.075 298.8075 350.575Q299.08875 350.23126 299.32312 349.1219L299.4325 348.60626Q298.60437 349.45 297.66687 349.45Q296.72937 349.45 296.08875 348.7625Q295.46375 348.0594 295.46375 346.79376Q295.46375 345.7469 295.96375 344.8719Q296.46375 343.98126 297.15125 343.54376Q297.83875 343.09064 298.57312 343.09064Q299.79187 343.09064 300.46375 344.2469L300.66687 343.23126L301.65125 343.23126L300.38562 349.23126Q300.1825 350.23126 299.83875 350.77814Q299.51062 351.325 298.91687 351.6219Q298.32312 351.9344 297.54187 351.9344Q296.79187 351.9344 296.245 351.7469Q295.71375 351.5594 295.44812 351.1844Q295.1825 350.8094 295.1825 350.325Q295.1825 350.1844 295.21375 350.0125ZM296.54187 346.7Q296.54187 347.34064 296.65125 347.65314Q296.83875 348.10626 297.15125 348.34064Q297.47937 348.575 297.88562 348.575Q298.40125 348.575 298.91687 348.21564Q299.4325 347.85626 299.745 347.09064Q300.07312 346.3094 300.07312 345.6219Q300.07312 344.85626 299.65125 344.40314Q299.22937 343.9344 298.60437 343.9344Q298.21375 343.9344 297.83875 344.15314Q297.47937 344.35626 297.16687 344.77814Q296.85437 345.2 296.69812 345.79376Q296.54187 346.3875 296.54187 346.7ZM305.41687 349.45L307.21375 340.85626L312.79187 340.85626L312.58875 341.84064L308.15125 341.84064L307.58875 344.575L312.10437 344.575L311.90125 345.5594L307.38562 345.5594L306.5575 349.45L305.41687 349.45ZM316.46375 348.66876Q315.91687 349.15314 315.40125 349.3719Q314.90125 349.59064 314.3075 349.59064Q313.44812 349.59064 312.91687 349.09064Q312.40125 348.575 312.40125 347.77814Q312.40125 347.2625 312.63562 346.8719Q312.87 346.46564 313.26062 346.23126Q313.65125 345.98126 314.22937 345.8719Q314.58875 345.79376 315.58875 345.7625Q316.58875 345.71564 317.01062 345.54376Q317.13562 345.10626 317.13562 344.825Q317.13562 344.45 316.87 344.2469Q316.495 343.95 315.79187 343.95Q315.12 343.95 314.69812 344.2469Q314.27625 344.54376 314.07312 345.09064L313.01062 344.9969Q313.33875 344.075 314.04187 343.59064Q314.76062 343.09064 315.83875 343.09064Q316.995 343.09064 317.66687 343.6375Q318.1825 344.04376 318.1825 344.7Q318.1825 345.2 318.04187 345.85626L317.69812 347.40314Q317.52625 348.1375 317.52625 348.60626Q317.52625 348.90314 317.66687 349.45L316.58875 349.45Q316.495 349.1375 316.46375 348.66876ZM316.85437 346.29376Q316.63562 346.3875 316.37 346.4344Q316.12 346.48126 315.52625 346.52814Q314.60437 346.60626 314.21375 346.7469Q313.83875 346.8719 313.63562 347.15314Q313.44812 347.41876 313.44812 347.7469Q313.44812 348.2 313.76062 348.48126Q314.07312 348.7625 314.63562 348.7625Q315.16687 348.7625 315.65125 348.4969Q316.13562 348.21564 316.41687 347.71564Q316.69812 347.21564 316.85437 346.29376ZM323.5575 347.1844L324.62 347.29376Q324.22937 348.46564 323.495 349.02814Q322.76062 349.59064 321.82312 349.59064Q320.8075 349.59064 320.16687 348.9344Q319.54187 348.27814 319.54187 347.10626Q319.54187 346.075 319.94812 345.09064Q320.35437 344.10626 321.10437 343.60626Q321.85437 343.09064 322.82312 343.09064Q323.82312 343.09064 324.40125 343.65314Q324.995 344.21564 324.995 345.15314L323.96375 345.21564Q323.94812 344.6219 323.60437 344.29376Q323.27625 343.96564 322.72937 343.96564Q322.08875 343.96564 321.62 344.3719Q321.15125 344.7625 320.88562 345.59064Q320.62 346.41876 320.62 347.16876Q320.62 347.96564 320.96375 348.3719Q321.32312 348.7625 321.83875 348.7625Q322.35437 348.7625 322.82312 348.3719Q323.29187 347.98126 323.5575 347.1844ZM327.745 348.59064L327.57312 349.45Q327.19812 349.5594 326.83875 349.5594Q326.19812 349.5594 325.82312 349.2469Q325.54187 349.0125 325.54187 348.60626Q325.54187 348.40314 325.69812 347.66876L326.44812 344.04376L325.62 344.04376L325.79187 343.23126L326.62 343.23126L326.94812 341.7L328.15125 340.96564L327.6825 343.23126L328.72937 343.23126L328.5575 344.04376L327.51062 344.04376L326.79187 347.48126Q326.65125 348.1375 326.65125 348.27814Q326.65125 348.46564 326.76062 348.5594Q326.87 348.65314 327.12 348.65314Q327.47937 348.65314 327.745 348.59064ZM328.46375 347.09064Q328.46375 345.2625 329.52625 344.075Q330.41687 343.09064 331.85437 343.09064Q332.97937 343.09064 333.66687 343.79376Q334.35437 344.4969 334.35437 345.6844Q334.35437 346.7625 333.91687 347.6844Q333.47937 348.60626 332.6825 349.10626Q331.88562 349.59064 330.995 349.59064Q330.27625 349.59064 329.6825 349.27814Q329.08875 348.96564 328.77625 348.40314Q328.46375 347.825 328.46375 347.09064ZM329.51062 346.98126Q329.51062 347.85626 329.9325 348.3094Q330.35437 348.7625 331.01062 348.7625Q331.35437 348.7625 331.6825 348.6375Q332.02625 348.4969 332.3075 348.21564Q332.58875 347.9344 332.79187 347.575Q332.995 347.21564 333.12 346.79376Q333.3075 346.21564 333.3075 345.6844Q333.3075 344.84064 332.87 344.3719Q332.44812 343.90314 331.8075 343.90314Q331.3075 343.90314 330.90125 344.15314Q330.495 344.3875 330.15125 344.84064Q329.82312 345.29376 329.66687 345.90314Q329.51062 346.5125 329.51062 346.98126ZM335.27625 349.45L336.57312 343.23126L337.51062 343.23126L337.245 344.4969Q337.72937 343.77814 338.1825 343.4344Q338.65125 343.09064 339.12 343.09064Q339.44812 343.09064 339.90125 343.3094L339.46375 344.29376Q339.19812 344.10626 338.87 344.10626Q338.3075 344.10626 337.71375 344.73126Q337.13562 345.34064 336.8075 346.95L336.27625 349.45L335.27625 349.45Z" fill-rule="nonzero"/><path fill="#000000" d="M29.550013 205.57812L20.956263 205.57812L20.956263 202.60938Q20.956263 201.60938 21.081263 201.07812Q21.253138 200.34375 21.690638 199.82812Q22.268763 199.14062 23.175013 198.8125Q24.065638 198.46875 25.206263 198.46875Q26.190638 198.46875 26.940638 198.70312Q27.690638 198.92188 28.190638 199.28125Q28.690638 199.64062 28.971888 200.07812Q29.253138 200.5 29.409388 201.09375Q29.550013 201.6875 29.550013 202.46875L29.550013 205.57812ZM28.534388 204.4375L28.534388 202.60938Q28.534388 201.75 28.378138 201.26562Q28.221888 200.78125 27.925013 200.5Q27.534388 200.09375 26.846888 199.875Q26.159388 199.64062 25.190638 199.64062Q23.846888 199.64062 23.128138 200.09375Q22.393763 200.53125 22.143763 201.15625Q21.971888 201.625 21.971888 202.625L21.971888 204.4375L28.534388 204.4375ZM22.175013 196.70312L20.956263 196.70312L20.956263 195.64062L22.175013 195.64062L22.175013 196.70312ZM29.550013 196.70312L23.331263 196.70312L23.331263 195.64062L29.550013 195.64062L29.550013 196.70312ZM27.690638 194.125L27.534388 193.09375Q28.159388 193.0 28.487513 192.60938Q28.815638 192.20312 28.815638 191.46875Q28.815638 190.75 28.534388 190.40625Q28.237513 190.04688 27.831263 190.04688Q27.471888 190.04688 27.268763 190.35938Q27.128138 190.57812 26.909388 191.4375Q26.612513 192.59375 26.409388 193.04688Q26.190638 193.48438 25.815638 193.71875Q25.440638 193.95312 24.971888 193.95312Q24.565638 193.95312 24.206263 193.76562Q23.846888 193.57812 23.612513 193.25Q23.440638 193.0 23.315638 192.57812Q23.190638 192.15625 23.190638 191.65625Q23.190638 190.9375 23.409388 190.39062Q23.612513 189.82812 23.971888 189.5625Q24.331263 189.29688 24.925013 189.20312L25.065638 190.23438Q24.596888 190.29688 24.331263 190.64062Q24.050013 190.96875 24.050013 191.59375Q24.050013 192.3125 24.300013 192.625Q24.534388 192.9375 24.862513 192.9375Q25.065638 192.9375 25.221888 192.8125Q25.393763 192.67188 25.503138 192.40625Q25.565638 192.25 25.768763 191.46875Q26.081263 190.34375 26.268763 189.90625Q26.456263 189.46875 26.815638 189.21875Q27.175013 188.96875 27.721888 188.96875Q28.253138 188.96875 28.721888 189.28125Q29.175013 189.57812 29.440638 190.15625Q29.690638 190.73438 29.690638 191.46875Q29.690638 192.6875 29.190638 193.32812Q28.675013 193.95312 27.690638 194.125ZM28.612513 184.40625L29.534388 184.25Q29.628138 184.70312 29.628138 185.04688Q29.628138 185.625 29.456263 185.9375Q29.268763 186.25 28.971888 186.39062Q28.675013 186.51562 27.721888 186.51562L24.143763 186.51562L24.143763 187.28125L23.331263 187.28125L23.331263 186.51562L21.784388 186.51562L21.159388 185.46875L23.331263 185.46875L23.331263 184.40625L24.143763 184.40625L24.143763 185.46875L27.784388 185.46875Q28.237513 185.46875 28.362513 185.42188Q28.487513 185.35938 28.565638 185.23438Q28.643763 185.10938 28.643763 184.875Q28.643763 184.6875 28.612513 184.40625ZM28.784388 179.64062Q29.284388 180.23438 29.487513 180.78125Q29.690638 181.3125 29.690638 181.9375Q29.690638 182.96875 29.190638 183.51562Q28.690638 184.0625 27.909388 184.0625Q27.456263 184.0625 27.081263 183.85938Q26.690638 183.65625 26.471888 183.3125Q26.237513 182.96875 26.128138 182.54688Q26.034388 182.25 25.956263 181.60938Q25.815638 180.34375 25.596888 179.73438Q25.378138 179.73438 25.331263 179.73438Q24.675013 179.73438 24.409388 180.03125Q24.065638 180.4375 24.065638 181.23438Q24.065638 181.96875 24.331263 182.32812Q24.581263 182.6875 25.237513 182.85938L25.096888 183.89062Q24.440638 183.75 24.034388 183.42188Q23.628138 183.09375 23.409388 182.48438Q23.190638 181.875 23.190638 181.07812Q23.190638 180.28125 23.378138 179.78125Q23.565638 179.28125 23.846888 179.04688Q24.128138 178.8125 24.565638 178.71875Q24.831263 178.67188 25.534388 178.67188L26.940638 178.67188Q28.409388 178.67188 28.800013 178.60938Q29.190638 178.53125 29.550013 178.32812L29.550013 179.4375Q29.221888 179.59375 28.784388 179.64062ZM26.425013 179.73438Q26.659388 180.3125 26.831263 181.45312Q26.925013 182.10938 27.050013 182.375Q27.159388 182.64062 27.378138 182.79688Q27.596888 182.9375 27.878138 182.9375Q28.300013 182.9375 28.581263 182.625Q28.862513 182.29688 28.862513 181.6875Q28.862513 181.07812 28.596888 180.60938Q28.331263 180.125 27.862513 179.90625Q27.503138 179.73438 26.815638 179.73438L26.425013 179.73438ZM21.550013 181.1875L22.550013 181.84375L22.550013 183.0625L20.909388 181.79688L20.909388 180.67188L22.550013 179.34375L22.550013 180.54688L21.550013 181.1875ZM29.550013 176.70312L23.331263 176.70312L23.331263 175.76562L24.206263 175.76562Q23.190638 175.07812 23.190638 173.78125Q23.190638 173.21875 23.393763 172.75Q23.596888 172.26562 23.925013 172.03125Q24.253138 171.79688 24.690638 171.70312Q24.987513 171.65625 25.721888 171.65625L29.550013 171.65625L29.550013 172.70312L25.768763 172.70312Q25.112513 172.70312 24.800013 172.82812Q24.487513 172.95312 24.300013 173.26562Q24.096888 173.57812 24.096888 174.0Q24.096888 174.67188 24.534388 175.17188Q24.956263 175.65625 26.143763 175.65625L29.550013 175.65625L29.550013 176.70312ZM27.268763 165.64062L27.409388 164.60938Q28.471888 164.78125 29.081263 165.48438Q29.690638 166.1875 29.690638 167.20312Q29.690638 168.48438 28.862513 169.26562Q28.018763 170.03125 26.456263 170.03125Q25.456263 170.03125 24.706263 169.70312Q23.940638 169.35938 23.565638 168.6875Q23.190638 168.0 23.190638 167.1875Q23.190638 166.1875 23.706263 165.54688Q24.206263 164.89062 25.159388 164.70312L25.315638 165.73438Q24.690638 165.875 24.378138 166.25Q24.050013 166.625 24.050013 167.15625Q24.050013 167.95312 24.628138 168.45312Q25.190638 168.95312 26.425013 168.95312Q27.690638 168.95312 28.253138 168.46875Q28.815638 167.98438 28.815638 167.21875Q28.815638 166.59375 28.440638 166.1875Q28.065638 165.76562 27.268763 165.64062ZM22.175013 163.70312L20.956263 163.70312L20.956263 162.64062L22.175013 162.64062L22.175013 163.70312ZM29.550013 163.70312L23.331263 163.70312L23.331263 162.64062L29.550013 162.64062L29.550013 163.70312ZM28.784388 156.64062Q29.284388 157.23438 29.487513 157.78125Q29.690638 158.3125 29.690638 158.9375Q29.690638 159.96875 29.190638 160.51562Q28.690638 161.0625 27.909388 161.0625Q27.456263 161.0625 27.081263 160.85938Q26.690638 160.65625 26.471888 160.3125Q26.237513 159.96875 26.128138 159.54688Q26.034388 159.25 25.956263 158.60938Q25.815638 157.34375 25.596888 156.73438Q25.378138 156.73438 25.331263 156.73438Q24.675013 156.73438 24.409388 157.03125Q24.065638 157.4375 24.065638 158.23438Q24.065638 158.96875 24.331263 159.32812Q24.581263 159.6875 25.237513 159.85938L25.096888 160.89062Q24.440638 160.75 24.034388 160.42188Q23.628138 160.09375 23.409388 159.48438Q23.190638 158.875 23.190638 158.07812Q23.190638 157.28125 23.378138 156.78125Q23.565638 156.28125 23.846888 156.04688Q24.128138 155.8125 24.565638 155.71875Q24.831263 155.67188 25.534388 155.67188L26.940638 155.67188Q28.409388 155.67188 28.800013 155.60938Q29.190638 155.53125 29.550013 155.32812L29.550013 156.4375Q29.221888 156.59375 28.784388 156.64062ZM26.425013 156.73438Q26.659388 157.3125 26.831263 158.45312Q26.925013 159.10938 27.050013 159.375Q27.159388 159.64062 27.378138 159.79688Q27.596888 159.9375 27.878138 159.9375Q28.300013 159.9375 28.581263 159.625Q28.862513 159.29688 28.862513 158.6875Q28.862513 158.07812 28.596888 157.60938Q28.331263 157.125 27.862513 156.90625Q27.503138 156.73438 26.815638 156.73438L26.425013 156.73438ZM32.08126 148.6875Q30.971888 149.5625 29.503138 150.17188Q28.018763 150.76562 26.440638 150.76562Q25.050013 150.76562 23.768763 150.32812Q22.284388 149.79688 20.815638 148.6875L20.815638 147.9375Q22.034388 148.64062 22.550013 148.875Q23.362513 149.23438 24.237513 149.4375Q25.331263 149.6875 26.440638 149.6875Q29.268763 149.6875 32.08126 147.9375L32.08126 148.6875ZM29.550013 146.70312L23.331263 146.70312L23.331263 145.76562L24.206263 145.76562Q23.737513 145.46875 23.471888 144.98438Q23.190638 144.5 23.190638 143.875Q23.190638 143.1875 23.471888 142.75Q23.753138 142.29688 24.268763 142.125Q23.190638 141.375 23.190638 140.20312Q23.190638 139.26562 23.706263 138.78125Q24.206263 138.28125 25.284388 138.28125L29.550013 138.28125L29.550013 139.32812L25.628138 139.32812Q25.003138 139.32812 24.721888 139.4375Q24.440638 139.53125 24.268763 139.79688Q24.096888 140.0625 24.096888 140.4375Q24.096888 141.09375 24.534388 141.53125Q24.971888 141.95312 25.940638 141.95312L29.550013 141.95312L29.550013 143.01562L25.503138 143.01562Q24.800013 143.01562 24.456263 143.28125Q24.096888 143.53125 24.096888 144.10938Q24.096888 144.5625 24.331263 144.9375Q24.565638 145.3125 25.018763 145.48438Q25.471888 145.65625 26.315638 145.65625L29.550013 145.65625L29.550013 146.70312ZM32.08126 135.01562L32.08126 135.76562Q29.268763 134.01562 26.440638 134.01562Q25.346888 134.01562 24.253138 134.26562Q23.378138 134.46875 22.565638 134.82812Q22.050013 135.0625 20.815638 135.76562L20.815638 135.01562Q22.284388 133.92188 23.768763 133.39062Q25.050013 132.9375 26.440638 132.9375Q28.018763 132.9375 29.503138 133.54688Q30.971888 134.15625 32.08126 135.01562Z" fill-rule="nonzero"/><path fill="#000000" d="M72.05 300.21564Q72.05 298.6844 72.3625 297.7625Q72.675 296.825 73.28438 296.325Q73.90938 295.825 74.84688 295.825Q75.53438 295.825 76.05 296.10626Q76.58125 296.3875 76.925 296.91876Q77.26875 297.4344 77.45625 298.1844Q77.64375 298.9344 77.64375 300.21564Q77.64375 301.73126 77.33125 302.65314Q77.03438 303.575 76.40938 304.09064Q75.8 304.59064 74.84688 304.59064Q73.6125 304.59064 72.89375 303.7Q72.05 302.6375 72.05 300.21564ZM73.12813 300.21564Q73.12813 302.325 73.62813 303.02814Q74.12813 303.73126 74.84688 303.73126Q75.58125 303.73126 76.06563 303.02814Q76.56563 302.325 76.56563 300.21564Q76.56563 298.09064 76.06563 297.40314Q75.58125 296.7 74.83125 296.7Q74.1125 296.7 73.675 297.3094Q73.12813 298.09064 73.12813 300.21564Z" fill-rule="nonzero"/><path fill="#000000" d="M63.596874 234.70938L63.596874 235.725L57.909374 235.725Q57.909374 235.35 58.034374 234.99063Q58.253124 234.4125 58.721874 233.85Q59.20625 233.2875 60.1125 232.55313Q61.51875 231.39688 62.003124 230.725Q62.503124 230.05313 62.503124 229.45938Q62.503124 228.83438 62.05 228.4125Q61.596874 227.975 60.878124 227.975Q60.1125 227.975 59.659374 228.42813Q59.20625 228.88126 59.190624 229.69376L58.1125 229.58438Q58.221874 228.36563 58.940624 227.74063Q59.675 227.1 60.909374 227.1Q62.14375 227.1 62.8625 227.7875Q63.58125 228.475 63.58125 229.49063Q63.58125 230.00626 63.3625 230.50626Q63.159374 230.99063 62.659374 231.55313Q62.175 232.1 61.05 233.05313Q60.096874 233.85 59.815624 234.14688Q59.55 234.42813 59.378124 234.70938L63.596874 234.70938ZM65.05 233.475L66.15938 233.38126Q66.28438 234.19376 66.72188 234.6Q67.175 235.00626 67.81563 235.00626Q68.56563 235.00626 69.09688 234.42813Q69.62813 233.85 69.62813 232.9125Q69.62813 232.00626 69.1125 231.49063Q68.6125 230.95938 67.78438 230.95938Q67.28438 230.95938 66.8625 231.19376Q66.45625 231.42813 66.22188 231.7875L65.2375 231.6625L66.06563 227.25626L70.34688 227.25626L70.34688 228.25626L66.90938 228.25626L66.45625 230.56876Q67.22188 230.02188 68.06563 230.02188Q69.19063 230.02188 69.95625 230.80313Q70.7375 231.58438 70.7375 232.81876Q70.7375 233.975 70.06563 234.83438Q69.2375 235.86563 67.81563 235.86563Q66.64375 235.86563 65.89375 235.20938Q65.15938 234.55313 65.05 233.475ZM72.05 231.49063Q72.05 229.95938 72.3625 229.0375Q72.675 228.1 73.28438 227.6Q73.90938 227.1 74.84688 227.1Q75.53438 227.1 76.05 227.38126Q76.58125 227.6625 76.925 228.19376Q77.26875 228.70938 77.45625 229.45938Q77.64375 230.20938 77.64375 231.49063Q77.64375 233.00626 77.33125 233.92813Q77.03438 234.85 76.40938 235.36563Q75.8 235.86563 74.84688 235.86563Q73.6125 235.86563 72.89375 234.975Q72.05 233.9125 72.05 231.49063ZM73.12813 231.49063Q73.12813 233.6 73.62813 234.30313Q74.12813 235.00626 74.84688 235.00626Q75.58125 235.00626 76.06563 234.30313Q76.56563 233.6 76.56563 231.49063Q76.56563 229.36563 76.06563 228.67813Q75.58125 227.975 74.83125 227.975Q74.1125 227.975 73.675 228.58438Q73.12813 229.36563 73.12813 231.49063Z" fill-rule="nonzero"/><path fill="#000000" d="M58.05 164.75L59.159374 164.65625Q59.284374 165.46875 59.721874 165.875Q60.175 166.28125 60.815624 166.28125Q61.565624 166.28125 62.096874 165.70312Q62.628124 165.125 62.628124 164.1875Q62.628124 163.28125 62.1125 162.76562Q61.6125 162.23438 60.784374 162.23438Q60.284374 162.23438 59.8625 162.46875Q59.45625 162.70312 59.221874 163.0625L58.2375 162.9375L59.065624 158.53125L63.346874 158.53125L63.346874 159.53125L59.909374 159.53125L59.45625 161.84375Q60.221874 161.29688 61.065624 161.29688Q62.190624 161.29688 62.95625 162.07812Q63.7375 162.85938 63.7375 164.09375Q63.7375 165.25 63.065624 166.10938Q62.2375 167.14062 60.815624 167.14062Q59.64375 167.14062 58.89375 166.48438Q58.159374 165.82812 58.05 164.75ZM65.05 162.76562Q65.05 161.23438 65.3625 160.3125Q65.675 159.375 66.28438 158.875Q66.90938 158.375 67.84688 158.375Q68.53438 158.375 69.05 158.65625Q69.58125 158.9375 69.925 159.46875Q70.26875 159.98438 70.45625 160.73438Q70.64375 161.48438 70.64375 162.76562Q70.64375 164.28125 70.33125 165.20312Q70.03438 166.125 69.40938 166.64062Q68.8 167.14062 67.84688 167.14062Q66.6125 167.14062 65.89375 166.25Q65.05 165.1875 65.05 162.76562ZM66.12813 162.76562Q66.12813 164.875 66.62813 165.57812Q67.12813 166.28125 67.84688 166.28125Q68.58125 166.28125 69.06563 165.57812Q69.56563 164.875 69.56563 162.76562Q69.56563 160.64062 69.06563 159.95312Q68.58125 159.25 67.83125 159.25Q67.1125 159.25 66.675 159.85938Q66.12813 160.64062 66.12813 162.76562ZM72.05 162.76562Q72.05 161.23438 72.3625 160.3125Q72.675 159.375 73.28438 158.875Q73.90938 158.375 74.84688 158.375Q75.53438 158.375 76.05 158.65625Q76.58125 158.9375 76.925 159.46875Q77.26875 159.98438 77.45625 160.73438Q77.64375 161.48438 77.64375 162.76562Q77.64375 164.28125 77.33125 165.20312Q77.03438 166.125 76.40938 166.64062Q75.8 167.14062 74.84688 167.14062Q73.6125 167.14062 72.89375 166.25Q72.05 165.1875 72.05 162.76562ZM73.12813 162.76562Q73.12813 164.875 73.62813 165.57812Q74.12813 166.28125 74.84688 166.28125Q75.58125 166.28125 76.06563 165.57812Q76.56563 164.875 76.56563 162.76562Q76.56563 160.64062 76.06563 159.95312Q75.58125 159.25 74.83125 159.25Q74.1125 159.25 73.675 159.85938Q73.12813 160.64062 73.12813 162.76562Z" fill-rule="nonzero"/><path fill="#000000" d="M58.1125 90.80625L58.1125 89.79063L63.675 89.79063L63.675 90.61875Q62.8625 91.49375 62.05 92.94688Q61.253124 94.38438 60.815624 95.91563Q60.4875 96.99375 60.409374 98.275L59.315624 98.275Q59.33125 97.25938 59.70625 95.82188Q60.096874 94.38438 60.8 93.05625Q61.51875 91.72813 62.33125 90.80625L58.1125 90.80625ZM65.05 96.025L66.15938 95.93125Q66.28438 96.74375 66.72188 97.15Q67.175 97.55625 67.81563 97.55625Q68.56563 97.55625 69.09688 96.97813Q69.62813 96.4 69.62813 95.4625Q69.62813 94.55625 69.1125 94.04063Q68.6125 93.50938 67.78438 93.50938Q67.28438 93.50938 66.8625 93.74375Q66.45625 93.97813 66.22188 94.3375L65.2375 94.2125L66.06563 89.80625L70.34688 89.80625L70.34688 90.80625L66.90938 90.80625L66.45625 93.11875Q67.22188 92.57188 68.06563 92.57188Q69.19063 92.57188 69.95625 93.35313Q70.7375 94.13438 70.7375 95.36875Q70.7375 96.525 70.06563 97.38438Q69.2375 98.41563 67.81563 98.41563Q66.64375 98.41563 65.89375 97.75938Q65.15938 97.10313 65.05 96.025ZM72.05 94.04063Q72.05 92.50938 72.3625 91.5875Q72.675 90.65 73.28438 90.15Q73.90938 89.65 74.84688 89.65Q75.53438 89.65 76.05 89.93125Q76.58125 90.2125 76.925 90.74375Q77.26875 91.25938 77.45625 92.00938Q77.64375 92.75938 77.64375 94.04063Q77.64375 95.55625 77.33125 96.47813Q77.03438 97.4 76.40938 97.91563Q75.8 98.41563 74.84688 98.41563Q73.6125 98.41563 72.89375 97.525Q72.05 96.4625 72.05 94.04063ZM73.12813 94.04063Q73.12813 96.15 73.62813 96.85313Q74.12813 97.55625 74.84688 97.55625Q75.58125 97.55625 76.06563 96.85313Q76.56563 96.15 76.56563 94.04063Q76.56563 91.91563 76.06563 91.22813Q75.58125 90.525 74.83125 90.525Q74.1125 90.525 73.675 91.13438Q73.12813 91.91563 73.12813 94.04063Z" fill-rule="nonzero"/><path fill="#000000" d="M55.01875 29.55L53.971874 29.55L53.971874 22.83125Q53.58125 23.190624 52.95625 23.565624Q52.346874 23.925 51.8625 24.096874L51.8625 23.08125Q52.7375 22.659374 53.39375 22.08125Q54.065624 21.4875 54.346874 20.925L55.01875 20.925L55.01875 29.55ZM58.05 25.315624Q58.05 23.784374 58.3625 22.8625Q58.675 21.925 59.284374 21.425Q59.909374 20.925 60.846874 20.925Q61.534374 20.925 62.05 21.20625Q62.58125 21.4875 62.925 22.01875Q63.26875 22.534374 63.45625 23.284374Q63.64375 24.034374 63.64375 25.315624Q63.64375 26.83125 63.33125 27.753124Q63.034374 28.675 62.409374 29.190624Q61.8 29.690624 60.846874 29.690624Q59.6125 29.690624 58.89375 28.8Q58.05 27.7375 58.05 25.315624ZM59.128124 25.315624Q59.128124 27.425 59.628124 28.128124Q60.128124 28.83125 60.846874 28.83125Q61.58125 28.83125 62.065624 28.128124Q62.565624 27.425 62.565624 25.315624Q62.565624 23.190624 62.065624 22.503124Q61.58125 21.8 60.83125 21.8Q60.1125 21.8 59.675 22.409374Q59.128124 23.190624 59.128124 25.315624ZM65.05 25.315624Q65.05 23.784374 65.3625 22.8625Q65.675 21.925 66.28438 21.425Q66.90938 20.925 67.84688 20.925Q68.53438 20.925 69.05 21.20625Q69.58125 21.4875 69.925 22.01875Q70.26875 22.534374 70.45625 23.284374Q70.64375 24.034374 70.64375 25.315624Q70.64375 26.83125 70.33125 27.753124Q70.03438 28.675 69.40938 29.190624Q68.8 29.690624 67.84688 29.690624Q66.6125 29.690624 65.89375 28.8Q65.05 27.7375 65.05 25.315624ZM66.12813 25.315624Q66.12813 27.425 66.62813 28.128124Q67.12813 28.83125 67.84688 28.83125Q68.58125 28.83125 69.06563 28.128124Q69.56563 27.425 69.56563 25.315624Q69.56563 23.190624 69.06563 22.503124Q68.58125 21.8 67.83125 21.8Q67.1125 21.8 66.675 22.409374Q66.12813 23.190624 66.12813 25.315624ZM72.05 25.315624Q72.05 23.784374 72.3625 22.8625Q72.675 21.925 73.28438 21.425Q73.90938 20.925 74.84688 20.925Q75.53438 20.925 76.05 21.20625Q76.58125 21.4875 76.925 22.01875Q77.26875 22.534374 77.45625 23.284374Q77.64375 24.034374 77.64375 25.315624Q77.64375 26.83125 77.33125 27.753124Q77.03438 28.675 76.40938 29.190624Q75.8 29.690624 74.84688 29.690624Q73.6125 29.690624 72.89375 28.8Q72.05 27.7375 72.05 25.315624ZM73.12813 25.315624Q73.12813 27.425 73.62813 28.128124Q74.12813 28.83125 74.84688 28.83125Q75.58125 28.83125 76.06563 28.128124Q76.56563 27.425 76.56563 25.315624Q76.56563 23.190624 76.06563 22.503124Q75.58125 21.8 74.83125 21.8Q74.1125 21.8 73.675 22.409374Q73.12813 23.190624 73.12813 25.315624Z" fill-rule="nonzero"/><path fill="#000000" d="M81.6125 309.98126L81.6125 308.96564L87.175 308.96564L87.175 309.79376Q86.3625 310.66876 85.55 312.1219Q84.75313 313.5594 84.31563 315.09064Q83.9875 316.16876 83.90938 317.45L82.81563 317.45Q82.83125 316.4344 83.20625 314.9969Q83.59688 313.5594 84.3 312.23126Q85.01875 310.90314 85.83125 309.98126L81.6125 309.98126Z" fill-rule="nonzero"/><path fill="#000000" d="M166.103 312.79376Q165.44675 312.54376 165.11862 312.10626Q164.80612 311.65314 164.80612 311.04376Q164.80612 310.10626 165.478 309.46564Q166.1655 308.825 167.27487 308.825Q168.39987 308.825 169.08737 309.48126Q169.77487 310.1375 169.77487 311.075Q169.77487 311.66876 169.46237 312.10626Q169.14987 312.54376 168.50925 312.79376Q169.30612 313.04376 169.71237 313.6219Q170.11862 314.2 170.11862 314.9969Q170.11862 316.09064 169.33737 316.84064Q168.57175 317.59064 167.2905 317.59064Q166.02487 317.59064 165.24362 316.84064Q164.46237 316.09064 164.46237 314.96564Q164.46237 314.1219 164.88425 313.5594Q165.32175 312.9969 166.103 312.79376ZM165.88425 310.9969Q165.88425 311.60626 166.27487 311.9969Q166.68112 312.3875 167.30612 312.3875Q167.9155 312.3875 168.30612 312.0125Q168.69675 311.6219 168.69675 311.0594Q168.69675 310.48126 168.2905 310.09064Q167.88425 309.6844 167.2905 309.6844Q166.68112 309.6844 166.27487 310.075Q165.88425 310.46564 165.88425 310.9969ZM165.55612 314.96564Q165.55612 315.41876 165.75925 315.84064Q165.978 316.2625 166.39987 316.4969Q166.82175 316.73126 167.30612 316.73126Q168.05612 316.73126 168.5405 316.2469Q169.0405 315.7625 169.0405 315.0125Q169.0405 314.2469 168.5405 313.7469Q168.0405 313.2469 167.27487 313.2469Q166.52487 313.2469 166.0405 313.7469Q165.55612 314.23126 165.55612 314.96564Z" fill-rule="nonzero"/><path fill="#000000" d="M247.56226 315.46564L248.57788 315.3719Q248.70288 316.09064 249.06226 316.41876Q249.43726 316.73126 249.99976 316.73126Q250.48413 316.73126 250.8435 316.5125Q251.2185 316.27814 251.45288 315.91876Q251.68726 315.54376 251.8435 314.91876Q251.99976 314.27814 251.99976 313.6219Q251.99976 313.54376 251.99976 313.40314Q251.68726 313.90314 251.14038 314.23126Q250.5935 314.54376 249.95288 314.54376Q248.87476 314.54376 248.14038 313.77814Q247.406 312.9969 247.406 311.73126Q247.406 310.41876 248.17163 309.6219Q248.95288 308.825 250.10913 308.825Q250.93726 308.825 251.62476 309.27814Q252.32788 309.73126 252.68726 310.575Q253.04663 311.40314 253.04663 312.98126Q253.04663 314.6219 252.68726 315.60626Q252.3435 316.575 251.62476 317.09064Q250.92163 317.59064 249.98413 317.59064Q248.9685 317.59064 248.32788 317.04376Q247.68726 316.48126 247.56226 315.46564ZM251.87476 311.66876Q251.87476 310.7625 251.39038 310.23126Q250.92163 309.7 250.23413 309.7Q249.531 309.7 248.99976 310.27814Q248.48413 310.84064 248.48413 311.7625Q248.48413 312.575 248.98413 313.09064Q249.48413 313.60626 250.20288 313.60626Q250.93726 313.60626 251.406 313.09064Q251.87476 312.575 251.87476 311.66876Z" fill-rule="nonzero"/><path fill="#000000" d="M330.80276 317.45L329.7559 317.45L329.7559 310.73126Q329.36526 311.09064 328.74026 311.46564Q328.1309 311.825 327.6465 311.9969L327.6465 310.98126Q328.5215 310.5594 329.17776 309.98126Q329.84964 309.3875 330.1309 308.825L330.80276 308.825L330.80276 317.45ZM333.834 313.21564Q333.834 311.6844 334.1465 310.7625Q334.459 309.825 335.0684 309.325Q335.6934 308.825 336.6309 308.825Q337.3184 308.825 337.834 309.10626Q338.36526 309.3875 338.709 309.91876Q339.05276 310.4344 339.24026 311.1844Q339.42776 311.9344 339.42776 313.21564Q339.42776 314.73126 339.11526 315.65314Q338.8184 316.575 338.1934 317.09064Q337.584 317.59064 336.6309 317.59064Q335.3965 317.59064 334.67776 316.7Q333.834 315.6375 333.834 313.21564ZM334.91214 313.21564Q334.91214 315.325 335.41214 316.02814Q335.91214 316.73126 336.6309 316.73126Q337.36526 316.73126 337.84964 316.02814Q338.34964 315.325 338.34964 313.21564Q338.34964 311.09064 337.84964 310.40314Q337.36526 309.7 336.61526 309.7Q335.8965 309.7 335.459 310.3094Q334.91214 311.09064 334.91214 313.21564Z" fill-rule="nonzero"/><path fill="#000000" d="M413.73074 317.45L412.68387 317.45L412.68387 310.73126Q412.29324 311.09064 411.66824 311.46564Q411.05887 311.825 410.5745 311.9969L410.5745 310.98126Q411.4495 310.5594 412.10574 309.98126Q412.77762 309.3875 413.05887 308.825L413.73074 308.825L413.73074 317.45ZM420.73074 317.45L419.68387 317.45L419.68387 310.73126Q419.29324 311.09064 418.66824 311.46564Q418.05887 311.825 417.5745 311.9969L417.5745 310.98126Q418.4495 310.5594 419.10574 309.98126Q419.77762 309.3875 420.05887 308.825L420.73074 308.825L420.73074 317.45Z" fill-rule="nonzero"/><path fill="#000000" d="M496.65875 317.45L495.61188 317.45L495.61188 310.73126Q495.22125 311.09064 494.59625 311.46564Q493.98688 311.825 493.5025 311.9969L493.5025 310.98126Q494.3775 310.5594 495.03375 309.98126Q495.70563 309.3875 495.98688 308.825L496.65875 308.825L496.65875 317.45ZM505.23688 316.4344L505.23688 317.45L499.54938 317.45Q499.54938 317.075 499.67438 316.71564Q499.89313 316.1375 500.36188 315.575Q500.84625 315.0125 501.7525 314.27814Q503.15875 313.1219 503.64313 312.45Q504.14313 311.77814 504.14313 311.1844Q504.14313 310.5594 503.69 310.1375Q503.23688 309.7 502.51813 309.7Q501.7525 309.7 501.29938 310.15314Q500.84625 310.60626 500.83063 311.41876L499.7525 311.3094Q499.86188 310.09064 500.58063 309.46564Q501.315 308.825 502.54938 308.825Q503.78375 308.825 504.5025 309.5125Q505.22125 310.2 505.22125 311.21564Q505.22125 311.73126 505.0025 312.23126Q504.79938 312.71564 504.29938 313.27814Q503.815 313.825 502.69 314.77814Q501.73688 315.575 501.45563 315.8719Q501.19 316.15314 501.01813 316.4344L505.23688 316.4344Z" fill-rule="nonzero"/><path stroke="#4285f4" stroke-width="4.0" stroke-linecap="butt" d="M521.45 25.55L533.45 25.55" fill-rule="nonzero"/><path fill="#1a1a1a" d="M542.325 29.55L542.325 20.95625L545.5594 20.95625Q546.54376 20.95625 547.1375 21.221874Q547.73126 21.4875 548.0594 22.034374Q548.40314 22.565624 548.40314 23.159374Q548.40314 23.70625 548.10626 24.190624Q547.8094 24.675 547.2 24.971874Q547.98126 25.20625 548.3875 25.76875Q548.8094 26.315624 548.8094 27.065624Q548.8094 27.659374 548.5594 28.190624Q548.3094 28.70625 547.9344 28.9875Q547.5594 29.26875 546.98126 29.409374Q546.41876 29.55 545.60626 29.55L542.325 29.55ZM543.46564 24.565624L545.325 24.565624Q546.075 24.565624 546.40314 24.471874Q546.84064 24.346874 547.0594 24.05Q547.27814 23.7375 547.27814 23.284374Q547.27814 22.8625 547.075 22.534374Q546.8719 22.20625 546.48126 22.096874Q546.10626 21.971874 545.1844 21.971874L543.46564 21.971874L543.46564 24.565624ZM543.46564 28.534374L545.60626 28.534374Q546.15314 28.534374 546.3719 28.4875Q546.77814 28.425 547.02814 28.26875Q547.29376 28.096874 547.46564 27.784374Q547.6375 27.471874 547.6375 27.065624Q547.6375 26.58125 547.3875 26.221874Q547.15314 25.8625 546.71564 25.721874Q546.27814 25.58125 545.45 25.58125L543.46564 25.58125L543.46564 28.534374ZM551.8719 29.55L549.59064 20.95625L550.7625 20.95625L552.075 26.596874Q552.27814 27.471874 552.4344 28.346874Q552.7625 26.971874 552.825 26.753124L554.45 20.95625L555.825 20.95625L557.0594 25.3Q557.5125 26.925 557.73126 28.346874Q557.8875 27.534374 558.15314 26.471874L559.4969 20.95625L560.6375 20.95625L558.29376 29.55L557.1844 29.55L555.3875 23.003124Q555.15314 22.190624 555.10626 22.003124Q554.98126 22.58125 554.85626 23.003124L553.04376 29.55L551.8719 29.55ZM564.91876 29.55L563.8719 29.55L563.8719 22.83125Q563.48126 23.190624 562.85626 23.565624Q562.2469 23.925 561.7625 24.096874L561.7625 23.08125Q562.6375 22.659374 563.29376 22.08125Q563.96564 21.4875 564.2469 20.925L564.91876 20.925L564.91876 29.55ZM573.4969 28.534374L573.4969 29.55L567.8094 29.55Q567.8094 29.175 567.9344 28.815624Q568.15314 28.2375 568.6219 27.675Q569.10626 27.1125 570.0125 26.378124Q571.41876 25.221874 571.90314 24.55Q572.40314 23.878124 572.40314 23.284374Q572.40314 22.659374 571.95 22.2375Q571.4969 21.8 570.77814 21.8Q570.0125 21.8 569.5594 22.253124Q569.10626 22.70625 569.09064 23.51875L568.0125 23.409374Q568.1219 22.190624 568.84064 21.565624Q569.575 20.925 570.8094 20.925Q572.04376 20.925 572.7625 21.6125Q573.48126 22.3 573.48126 23.315624Q573.48126 23.83125 573.2625 24.33125Q573.0594 24.815624 572.5594 25.378124Q572.075 25.925 570.95 26.878124Q569.9969 27.675 569.71564 27.971874Q569.45 28.253124 569.27814 28.534374L573.4969 28.534374ZM574.95 27.3L576.0594 27.20625Q576.1844 28.01875 576.6219 28.425Q577.075 28.83125 577.71564 28.83125Q578.46564 28.83125 578.9969 28.253124Q579.52814 27.675 579.52814 26.7375Q579.52814 25.83125 579.0125 25.315624Q578.5125 24.784374 577.6844 24.784374Q577.1844 24.784374 576.7625 25.01875Q576.35626 25.253124 576.1219 25.6125L575.1375 25.4875L575.96564 21.08125L580.2469 21.08125L580.2469 22.08125L576.8094 22.08125L576.35626 24.39375Q577.1219 23.846874 577.96564 23.846874Q579.09064 23.846874 579.85626 24.628124Q580.6375 25.409374 580.6375 26.64375Q580.6375 27.8 579.96564 28.659374Q579.1375 29.690624 577.71564 29.690624Q576.54376 29.690624 575.79376 29.034374Q575.0594 28.378124 574.95 27.3Z" fill-rule="nonzero"/><path stroke="#ea4335" stroke-width="4.0" stroke-linecap="butt" d="M521.45 49.55L533.45 49.55" fill-rule="nonzero"/><path fill="#1a1a1a" d="M542.325 53.55L542.325 44.95625L545.5594 44.95625Q546.54376 44.95625 547.1375 45.221874Q547.73126 45.4875 548.0594 46.034374Q548.40314 46.565624 548.40314 47.159374Q548.40314 47.70625 548.10626 48.190624Q547.8094 48.675 547.2 48.971874Q547.98126 49.20625 548.3875 49.76875Q548.8094 50.315624 548.8094 51.065624Q548.8094 51.659374 548.5594 52.190624Q548.3094 52.70625 547.9344 52.9875Q547.5594 53.26875 546.98126 53.409374Q546.41876 53.55 545.60626 53.55L542.325 53.55ZM543.46564 48.565624L545.325 48.565624Q546.075 48.565624 546.40314 48.471874Q546.84064 48.346874 547.0594 48.05Q547.27814 47.7375 547.27814 47.284374Q547.27814 46.8625 547.075 46.534374Q546.8719 46.20625 546.48126 46.096874Q546.10626 45.971874 545.1844 45.971874L543.46564 45.971874L543.46564 48.565624ZM543.46564 52.534374L545.60626 52.534374Q546.15314 52.534374 546.3719 52.4875Q546.77814 52.425 547.02814 52.26875Q547.29376 52.096874 547.46564 51.784374Q547.6375 51.471874 547.6375 51.065624Q547.6375 50.58125 547.3875 50.221874Q547.15314 49.8625 546.71564 49.721874Q546.27814 49.58125 545.45 49.58125L543.46564 49.58125L543.46564 52.534374ZM551.8719 53.55L549.59064 44.95625L550.7625 44.95625L552.075 50.596874Q552.27814 51.471874 552.4344 52.346874Q552.7625 50.971874 552.825 50.753124L554.45 44.95625L555.825 44.95625L557.0594 49.3Q557.5125 50.925 557.73126 52.346874Q557.8875 51.534374 558.15314 50.471874L559.4969 44.95625L560.6375 44.95625L558.29376 53.55L557.1844 53.55L555.3875 47.003124Q555.15314 46.190624 555.10626 46.003124Q554.98126 46.58125 554.85626 47.003124L553.04376 53.55L551.8719 53.55ZM566.4969 52.534374L566.4969 53.55L560.8094 53.55Q560.8094 53.175 560.9344 52.815624Q561.15314 52.2375 561.6219 51.675Q562.10626 51.1125 563.0125 50.378124Q564.41876 49.221874 564.90314 48.55Q565.40314 47.878124 565.40314 47.284374Q565.40314 46.659374 564.95 46.2375Q564.4969 45.8 563.77814 45.8Q563.0125 45.8 562.5594 46.253124Q562.10626 46.70625 562.09064 47.51875L561.0125 47.409374Q561.1219 46.190624 561.84064 45.565624Q562.575 44.925 563.8094 44.925Q565.04376 44.925 565.7625 45.6125Q566.48126 46.3 566.48126 47.315624Q566.48126 47.83125 566.2625 48.33125Q566.0594 48.815624 565.5594 49.378124Q565.075 49.925 563.95 50.878124Q562.9969 51.675 562.71564 51.971874Q562.45 52.253124 562.27814 52.534374L566.4969 52.534374ZM567.95 51.3L569.0594 51.20625Q569.1844 52.01875 569.6219 52.425Q570.075 52.83125 570.71564 52.83125Q571.46564 52.83125 571.9969 52.253124Q572.52814 51.675 572.52814 50.7375Q572.52814 49.83125 572.0125 49.315624Q571.5125 48.784374 570.6844 48.784374Q570.1844 48.784374 569.7625 49.01875Q569.35626 49.253124 569.1219 49.6125L568.1375 49.4875L568.96564 45.08125L573.2469 45.08125L573.2469 46.08125L569.8094 46.08125L569.35626 48.39375Q570.1219 47.846874 570.96564 47.846874Q572.09064 47.846874 572.85626 48.628124Q573.6375 49.409374 573.6375 50.64375Q573.6375 51.8 572.96564 52.659374Q572.1375 53.690624 570.71564 53.690624Q569.54376 53.690624 568.79376 53.034374Q568.0594 52.378124 567.95 51.3ZM574.95 49.315624Q574.95 47.784374 575.2625 46.8625Q575.575 45.925 576.1844 45.425Q576.8094 44.925 577.7469 44.925Q578.4344 44.925 578.95 45.20625Q579.48126 45.4875 579.825 46.01875Q580.16876 46.534374 580.35626 47.284374Q580.54376 48.034374 580.54376 49.315624Q580.54376 50.83125 580.23126 51.753124Q579.9344 52.675 579.3094 53.190624Q578.7 53.690624 577.7469 53.690624Q576.5125 53.690624 575.79376 52.8Q574.95 51.7375 574.95 49.315624ZM576.02814 49.315624Q576.02814 51.425 576.52814 52.128124Q577.02814 52.83125 577.7469 52.83125Q578.48126 52.83125 578.96564 52.128124Q579.46564 51.425 579.46564 49.315624Q579.46564 47.190624 578.96564 46.503124Q578.48126 45.8 577.73126 45.8Q577.0125 45.8 576.575 46.409374Q576.02814 47.190624 576.02814 49.315624Z" fill-rule="nonzero"/></svg>