<svg version="1.1" viewBox="0.0 0.0 600.0 371.0" fill="none" stroke="none" stroke-linecap="square" stroke-miterlimit="10" width="600" height="371" xmlns:xlink="http://www.w3.org/1999/xlink" xmlns="http://www.w3.org/2000/svg"><path fill="#ffffff" d="M0 0L600.0 0L600.0 371.0L0 371.0L0 0Z" fill-rule="nonzero"/><path stroke="#cccccc" stroke-width="1.0" stroke-linecap="butt" d="M94.5 25.5L94.5 300.5" fill-rule="nonzero"/><path stroke="#cccccc" stroke-width="1.0" stroke-linecap="butt" d="M175.5 25.5L175.5 300.5" fill-rule="nonzero"/><path stroke="#cccccc" stroke-width="1.0" stroke-linecap="butt" d="M256.5 25.5L256.5 300.5" fill-rule="nonzero"/><path stroke="#cccccc" stroke-width="1.0" stroke-linecap="butt" d="M337.5 25.5L337.5 300.5" fill-rule="nonzero"/><path stroke="#cccccc" stroke-width="1.0" stroke-linecap="butt" d="M418.5 25.5L418.5 300.5" fill-rule="nonzero"/><path stroke="#cccccc" stroke-width="1.0" stroke-linecap="butt" d="M499.5 25.5L499.5 300.5" fill-rule="nonzero"/><path stroke="#333333" stroke-width="1.0" stroke-linecap="butt" d="M94.5 300.5L499.5 300.5" fill-rule="nonzero"/><path stroke="#cccccc" stroke-width="1.0" stroke-linecap="butt" d="M94.5 208.5L499.5 208.5" fill-rule="nonzero"/><path stroke="#cccccc" stroke-width="1.0" stroke-linecap="butt" d="M94.5 117.5L499.5 117.5" fill-rule="nonzero"/><path stroke="#cccccc" stroke-width="1.0" stroke-linecap="butt" d="M94.5 25.5L499.5 25.5" fill-rule="nonzero"/><clipPath id="id_0"><path d="M94.55 25.55L499.19 25.55L499.19 300.45L94.55 300.45L94.55 25.55Z" clip-rule="nonzero"/></clipPath><path stroke="#4285f4" stroke-width="2.0" stroke-linecap="butt" clip-path="url(#id_0)" d="M94.55 228.976L175.478 184.992L256.406 161.16733L337.334 106.18733L418.262 62.203335L499.19 40.211334" fill-rule="nonzero"/><path stroke="#ea4335" stroke-width="2.0" stroke-linecap="butt" clip-path="url(#id_0)" d="M94.55 254.63333L175.478 234.474L256.406 184.992L337.334 166.66533L418.262 117.183334L499.19 89.69334" fill-rule="nonzero"/><path fill="#000000" fill-opacity="0.0" clip-path="url(#id_0)" d="M97.55 228.976C97.55 230.63286 96.206856 231.976 94.55 231.976C92.89314 231.976 91.55 230.63286 91.55 228.976C91.55 227.31915 92.89314 225.976 94.55 225.976C96.206856 225.976 97.55 227.31915 97.55 228.976Z" fill-rule="nonzero"/><path fill="#000000" fill-opacity="0.0" clip-path="url(#id_0)" d="M178.478 184.992C178.478 186.64885 177.13486 187.992 175.478 187.992C173.82115 187.992 172.478 186.64885 172.478 184.992C172.478 183.33514 173.82115 181.992 175.478 181.992C177.13486 181.992 178.478 183.33514 178.478 184.992Z" fill-rule="nonzero"/><path fill="#000000" fill-opacity="0.0" clip-path="url(#id_0)" d="M259.406 161.16733C259.406 162.82419 258.06287 164.16733 256.406 164.16733C254.74915 164.16733 253.406 162.82419 253.406 161.16733C253.406 159.51048 254.74915 158.16733 256.406 158.16733C258.06287 158.16733 259.406 159.51048 259.406 161.16733Z" fill-rule="nonzero"/><path fill="#000000" fill-opacity="0.0" clip-path="url(#id_0)" d="M340.334 106.18733C340.334 107.844185 338.99084 109.18733 337.334 109.18733C335.67715 109.18733 334.334 107.844185 334.334 106.18733C334.334 104.53048 335.67715 103.18733 337.334 103.18733C338.99084 103.18733 340.334 104.53048 340.334 106.18733Z" fill-rule="nonzero"/><path fill="#000000" fill-opacity="0.0" clip-path="url(#id_0)" d="M421.262 62.203335C421.262 63.860188 419.91885 65.20333 418.262 65.20333C416.60513 65.20333 415.262 63.860188 415.262 62.203335C415.262 60.54648 416.60513 59.203335 418.262 59.203335C419.91885 59.203335 421.262 60.54648 421.262 62.203335Z" fill-rule="nonzero"/><path fill="#000000" fill-opacity="0.0" clip-path="url(#id_0)" d="M502.19 40.211334C502.19 41.868187 500.84686 43.211334 499.19 43.211334C497.53314 43.211334 496.19 41.868187 496.19 40.211334C496.19 38.554478 497.53314 37.211334 499.19 37.211334C500.84686 37.211334 502.19 38.554478 502.19 40.211334Z" fill-rule="nonzero"/><path fill="#000000" fill-opacity="0.0" clip-path="url(#id_0)" d="M97.55 254.63333C97.55 256.2902 96.206856 257.63333 94.55 257.63333C92.89314 257.63333 91.55 256.2902 91.55 254.63333C91.55 252.97649 92.89314 251.63333 94.55 251.63333C96.206856 251.63333 97.55 252.97649 97.55 254.63333Z" fill-rule="nonzero"/><path fill="#000000" fill-opacity="0.0" clip-path="url(#id_0)" d="M178.478 234.474C178.478 236.13086 177.13486 237.474 175.478 237.474C173.82115 237.474 172.478 236.13086 172.478 234.474C172.478 232.81714 173.82115 231.474 175.478 231.474C177.13486 231.474 178.478 232.81714 178.478 234.474Z" fill-rule="nonzero"/><path fill="#000000" fill-opacity="0.0" clip-path="url(#id_0)" d="M259.406 184.992C259.406 186.64885 258.06287 187.992 256.406 187.992C254.74915 187.992 253.406 186.64885 253.406 184.992C253.406 183.33514 254.74915 181.992 256.406 181.992C258.06287 181.992 259.406 183.33514 259.406 184.992Z" fill-rule="nonzero"/><path fill="#000000" fill-opacity="0.0" clip-path="url(#id_0)" d="M340.334 166.66533C340.334 168.32219 338.99084 169.66533 337.334 169.66533C335.67715 169.66533 334.334 168.32219 334.334 166.66533C334.334 165.00848 335.67715 163.66533 337.334 163.66533C338.99084 163.66533 340.334 165.00848 340.334 166.66533Z" fill-rule="nonzero"/><path fill="#000000" fill-opacity="0.0" clip-path="url(#id_0)" d="M421.262 117.183334C421.262 118.84019 419.91885 120.183334 418.262 120.183334C416.60513 120.183334 415.262 118.84019 415.262 117.183334C415.262 115.52648 416.60513 114.183334 418.262 114.183334C419.91885 114.183334 421.262 115.52648 421.262 117.183334Z" fill-rule="nonzero"/><path fill="#000000" fill-opacity="0.0" clip-path="url(#id_0)" d="M502.19 89.69334C502.19 91.35019 500.84686 92.69334 499.19 92.69334C497.53314 92.69334 496.19 91.35019 496.19 89.69334C496.19 88.036476 497.53314 86.69334 499.19 86.69334C500.84686 86.69334 502.19 88.036476 502.19 89.69334Z" fill-rule="nonzero"/><path fill="#000000" d="M250.71375 346.66876L251.83875 346.5594L251.82312 346.8719Q251.82312 347.35626 252.0575 347.77814Q252.29187 348.1844 252.8075 348.41876Q253.33875 348.6375 254.07312 348.6375Q255.10437 348.6375 255.63562 348.1844Q256.1825 347.73126 256.1825 347.15314Q256.1825 346.7469 255.90125 346.41876Q255.60437 346.09064 254.29187 345.52814Q253.27625 345.09064 252.91687 344.85626Q252.33875 344.48126 252.0575 344.02814Q251.77625 343.575 251.77625 342.9969Q251.77625 342.34064 252.13562 341.8094Q252.51062 341.27814 253.19812 340.9969Q253.90125 340.71564 254.79187 340.71564Q255.83875 340.71564 256.5575 341.075Q257.27625 341.41876 257.60437 342.0125Q257.9325 342.59064 257.9325 343.1219Q257.9325 343.16876 257.91687 343.29376L256.8075 343.3875Q256.8075 343.02814 256.745 342.8094Q256.63562 342.46564 256.38562 342.21564Q256.13562 341.96564 255.69812 341.825Q255.27625 341.66876 254.745 341.66876Q253.8075 341.66876 253.29187 342.09064Q252.88562 342.41876 252.88562 342.95Q252.88562 343.2625 253.04187 343.5125Q253.21375 343.7625 253.65125 343.9969Q253.94812 344.16876 255.08875 344.66876Q256.01062 345.09064 256.37 345.325Q256.83875 345.6219 257.08875 346.075Q257.33875 346.5125 257.33875 347.075Q257.33875 347.77814 256.91687 348.3719Q256.495 348.95 255.745 349.27814Q254.995 349.59064 254.02625 349.59064Q252.57312 349.59064 251.63562 348.96564Q250.71375 348.325 250.71375 346.66876ZM257.745 351.84064L259.54187 343.23126L260.52625 343.23126L260.33875 344.09064Q260.88562 343.52814 261.3075 343.3094Q261.745 343.09064 262.22937 343.09064Q263.12 343.09064 263.69812 343.7469Q264.29187 344.3875 264.29187 345.59064Q264.29187 346.5594 263.96375 347.35626Q263.65125 348.15314 263.1825 348.65314Q262.71375 349.1375 262.22937 349.3719Q261.745 349.59064 261.245 349.59064Q260.12 349.59064 259.51062 348.45L258.8075 351.84064L257.745 351.84064ZM259.83875 346.90314Q259.83875 347.60626 259.94812 347.8719Q260.08875 348.2469 260.41687 348.48126Q260.76062 348.71564 261.19812 348.71564Q262.12 348.71564 262.6825 347.7Q263.245 346.66876 263.245 345.59064Q263.245 344.8094 262.85437 344.3719Q262.47937 343.9344 261.91687 343.9344Q261.51062 343.9344 261.16687 344.15314Q260.82312 344.3719 260.52625 344.79376Q260.22937 345.21564 260.02625 345.84064Q259.83875 346.45 259.83875 346.90314ZM265.27625 349.45L266.57312 343.23126L267.51062 343.23126L267.245 344.4969Q267.72937 343.77814 268.1825 343.4344Q268.65125 343.09064 269.12 343.09064Q269.44812 343.09064 269.90125 343.3094L269.46375 344.29376Q269.19812 344.10626 268.87 344.10626Q268.3075 344.10626 267.71375 344.73126Q267.13562 345.34064 266.8075 346.95L266.27625 349.45L265.27625 349.45ZM273.83875 347.34064L274.87 347.4344Q274.65125 348.2 273.83875 348.90314Q273.04187 349.59064 271.94812 349.59064Q271.245 349.59064 270.66687 349.27814Q270.08875 348.95 269.79187 348.34064Q269.495 347.73126 269.495 346.95Q269.495 345.9344 269.96375 344.98126Q270.4325 344.0125 271.1825 343.5594Q271.9325 343.09064 272.8075 343.09064Q273.91687 343.09064 274.57312 343.77814Q275.245 344.46564 275.245 345.66876Q275.245 346.1219 275.16687 346.60626L270.58875 346.60626Q270.5575 346.77814 270.5575 346.9344Q270.5575 347.8094 270.96375 348.2625Q271.37 348.71564 271.94812 348.71564Q272.495 348.71564 273.01062 348.3719Q273.54187 348.0125 273.83875 347.34064ZM270.76062 345.79376L274.245 345.79376Q274.26062 345.6219 274.26062 345.5594Q274.26062 344.7625 273.85437 344.34064Q273.46375 343.91876 272.83875 343.91876Q272.15125 343.91876 271.58875 344.3875Q271.02625 344.85626 270.76062 345.79376ZM280.46375 348.66876Q279.91687 349.15314 279.40125 349.3719Q278.90125 349.59064 278.3075 349.59064Q277.44812 349.59064 276.91687 349.09064Q276.40125 348.575 276.40125 347.77814Q276.40125 347.2625 276.63562 346.8719Q276.87 346.46564 277.26062 346.23126Q277.65125 345.98126 278.22937 345.8719Q278.58875 345.79376 279.58875 345.7625Q280.58875 345.71564 281.01062 345.54376Q281.13562 345.10626 281.13562 344.825Q281.13562 344.45 280.87 344.2469Q280.495 343.95 279.79187 343.95Q279.12 343.95 278.69812 344.2469Q278.27625 344.54376 278.07312 345.09064L277.01062 344.9969Q277.33875 344.075 278.04187 343.59064Q278.76062 343.09064 279.83875 343.09064Q280.995 343.09064 281.66687 343.6375Q282.1825 344.04376 282.1825 344.7Q282.1825 345.2 282.04187 345.85626L281.69812 347.40314Q281.52625 348.1375 281.52625 348.60626Q281.52625 348.90314 281.66687 349.45L280.58875 349.45Q280.495 349.1375 280.46375 348.66876ZM280.85437 346.29376Q280.63562 346.3875 280.37 346.4344Q280.12 346.48126 279.52625 346.52814Q278.60437 346.60626 278.21375 346.7469Q277.83875 346.8719 277.63562 347.15314Q277.44812 347.41876 277.44812 347.7469Q277.44812 348.2 277.76062 348.48126Q278.07312 348.7625 278.63562 348.7625Q279.16687 348.7625 279.65125 348.4969Q280.13562 348.21564 280.41687 347.71564Q280.69812 347.21564 280.85437 346.29376ZM287.46375 348.54376Q286.5575 349.59064 285.57312 349.59064Q284.6825 349.59064 284.08875 348.9344Q283.51062 348.27814 283.51062 347.04376Q283.51062 345.90314 283.96375 344.96564Q284.4325 344.02814 285.13562 343.5594Q285.83875 343.09064 286.54187 343.09064Q287.69812 343.09064 288.29187 344.2L288.995 340.85626L290.04187 340.85626L288.26062 349.45L287.27625 349.45L287.46375 348.54376ZM284.5575 346.84064Q284.5575 347.4969 284.6825 347.8719Q284.82312 348.2469 285.12 348.4969Q285.4325 348.7469 285.87 348.7469Q286.58875 348.7469 287.1825 347.9969Q287.96375 346.9969 287.96375 345.52814Q287.96375 344.79376 287.57312 344.3875Q287.1825 343.96564 286.60437 343.96564Q286.22937 343.96564 285.90125 344.1375Q285.58875 344.29376 285.27625 344.7Q284.97937 345.10626 284.76062 345.7469Q284.5575 346.3719 284.5575 346.84064ZM291.77625 342.0594L292.02625 340.85626L293.08875 340.85626L292.82312 342.0594L291.77625 342.0594ZM290.22937 349.45L291.52625 343.23126L292.58875 343.23126L291.29187 349.45L290.22937 349.45ZM293.27625 349.45L294.57312 343.23126L295.52625 343.23126L295.3075 344.3094Q295.9325 343.66876 296.47937 343.3875Q297.02625 343.09064 297.58875 343.09064Q298.33875 343.09064 298.76062 343.4969Q299.19812 343.90314 299.19812 344.59064Q299.19812 344.9344 299.0575 345.6844L298.26062 349.45L297.19812 349.45L298.02625 345.5125Q298.15125 344.9344 298.15125 344.65314Q298.15125 344.34064 297.9325 344.15314Q297.72937 343.96564 297.32312 343.96564Q296.51062 343.96564 295.87 344.5594Q295.22937 345.1375 294.9325 346.5594L294.32312 349.45L293.27625 349.45ZM300.21375 350.0125L301.27625 350.10626Q301.27625 350.48126 301.37 350.65314Q301.46375 350.84064 301.6825 350.9344Q301.97937 351.075 302.4325 351.075Q303.38562 351.075 303.8075 350.575Q304.08875 350.23126 304.32312 349.1219L304.4325 348.60626Q303.60437 349.45 302.66687 349.45Q301.72937 349.45 301.08875 348.7625Q300.46375 348.0594 300.46375 346.79376Q300.46375 345.7469 300.96375 344.8719Q301.46375 343.98126 302.15125 343.54376Q302.83875 343.09064 303.57312 343.09064Q304.79187 343.09064 305.46375 344.2469L305.66687 343.23126L306.65125 343.23126L305.38562 349.23126Q305.1825 350.23126 304.83875 350.77814Q304.51062 351.325 303.91687 351.6219Q303.32312 351.9344 302.54187 351.9344Q301.79187 351.9344 301.245 351.7469Q300.71375 351.5594 300.44812 351.1844Q300.1825 350.8094 300.1825 350.325Q300.1825 350.1844 300.21375 350.0125ZM301.54187 346.7Q301.54187 347.34064 301.65125 347.65314Q301.83875 348.10626 302.15125 348.34064Q302.47937 348.575 302.88562 348.575Q303.40125 348.575 303.91687 348.21564Q304.4325 347.85626 304.745 347.09064Q305.07312 346.3094 305.07312 345.6219Q305.07312 344.85626 304.65125 344.40314Q304.22937 343.9344 303.60437 343.9344Q303.21375 343.9344 302.83875 344.15314Q302.47937 344.35626 302.16687 344.77814Q301.85437 345.2 301.69812 345.79376Q301.54187 346.3875 301.54187 346.7ZM310.41687 349.45L312.21375 340.85626L317.79187 340.85626L317.58875 341.84064L313.15125 341.84064L312.58875 344.575L317.10437 344.575L316.90125 345.5594L312.38562 345.5594L311.5575 349.45L310.41687 349.45ZM321.46375 348.66876Q320.91687 349.15314 320.40125 349.3719Q319.90125 349.59064 319.3075 349.59064Q318.44812 349.59064 317.91687 349.09064Q317.40125 348.575 317.40125 347.77814Q317.40125 347.2625 317.63562 346.8719Q317.87 346.46564 318.26062 346.23126Q318.65125 345.98126 319.22937 345.8719Q319.58875 345.79376 320.58875 345.7625Q321.58875 345.71564 322.01062 345.54376Q322.13562 345.10626 322.13562 344.825Q322.13562 344.45 321.87 344.2469Q321.495 343.95 320.79187 343.95Q320.12 343.95 319.69812 344.2469Q319.27625 344.54376 319.07312 345.09064L318.01062 344.9969Q318.33875 344.075 319.04187 343.59064Q319.76062 343.09064 320.83875 343.09064Q321.995 343.09064 322.66687 343.6375Q323.1825 344.04376 323.1825 344.7Q323.1825 345.2 323.04187 345.85626L322.69812 347.40314Q322.52625 348.1375 322.52625 348.60626Q322.52625 348.90314 322.66687 349.45L321.58875 349.45Q321.495 349.1375 321.46375 348.66876ZM321.85437 346.29376Q321.63562 346.3875 321.37 346.4344Q321.12 346.48126 320.52625 346.52814Q319.60437 346.60626 319.21375 346.7469Q318.83875 346.8719 318.63562 347.15314Q318.44812 347.41876 318.44812 347.7469Q318.44812 348.2 318.76062 348.48126Q319.07312 348.7625 319.63562 348.7625Q320.16687 348.7625 320.65125 348.4969Q321.13562 348.21564 321.41687 347.71564Q321.69812 347.21564 321.85437 346.29376ZM328.5575 347.1844L329.62 347.29376Q329.22937 348.46564 328.495 349.02814Q327.76062 349.59064 326.82312 349.59064Q325.8075 349.59064 325.16687 348.9344Q324.54187 348.27814 324.54187 347.10626Q324.54187 346.075 324.94812 345.09064Q325.35437 344.10626 326.10437 343.60626Q326.85437 343.09064 327.82312 343.09064Q328.82312 343.09064 329.40125 343.65314Q329.995 344.21564 329.995 345.15314L328.96375 345.21564Q328.94812 344.6219 328.60437 344.29376Q328.27625 343.96564 327.72937 343.96564Q327.08875 343.96564 326.62 344.3719Q326.15125 344.7625 325.88562 345.59064Q325.62 346.41876 325.62 347.16876Q325.62 347.96564 325.96375 348.3719Q326.32312 348.7625 326.83875 348.7625Q327.35437 348.7625 327.82312 348.3719Q328.29187 347.98126 328.5575 347.1844ZM332.745 348.59064L332.57312 349.45Q332.19812 349.5594 331.83875 349.5594Q331.19812 349.5594 330.82312 349.2469Q330.54187 349.0125 330.54187 348.60626Q330.54187 348.40314 330.69812 347.66876L331.44812 344.04376L330.62 344.04376L330.79187 343.23126L331.62 343.23126L331.94812 341.7L333.15125 340.96564L332.6825 343.23126L333.72937 343.23126L333.5575 344.04376L332.51062 344.04376L331.79187 347.48126Q331.65125 348.1375 331.65125 348.27814Q331.65125 348.46564 331.76062 348.5594Q331.87 348.65314 332.12 348.65314Q332.47937 348.65314 332.745 348.59064ZM333.46375 347.09064Q333.46375 345.2625 334.52625 344.075Q335.41687 343.09064 336.85437 343.09064Q337.97937 343.09064 338.66687 343.79376Q339.35437 344.4969 339.35437 345.6844Q339.35437 346.7625 338.91687 347.6844Q338.47937 348.60626 337.6825 349.10626Q336.88562 349.59064 335.995 349.59064Q335.27625 349.59064 334.6825 349.27814Q334.08875 348.96564 333.77625 348.40314Q333.46375 347.825 333.46375 347.09064ZM334.51062 346.98126Q334.51062 347.85626 334.9325 348.3094Q335.35437 348.7625 336.01062 348.7625Q336.35437 348.7625 336.6825 348.6375Q337.02625 348.4969 337.3075 348.21564Q337.58875 347.9344 337.79187 347.575Q337.995 347.21564 338.12 346.79376Q338.3075 346.21564 338.3075 345.6844Q338.3075 344.84064 337.87 344.3719Q337.44812 343.90314 336.8075 343.90314Q336.3075 343.90314 335.90125 344.15314Q335.495 344.3875 335.15125 344.84064Q334.82312 345.29376 334.66687 345.90314Q334.51062 346.5125 334.51062 346.98126ZM340.27625 349.45L341.57312 343.23126L342.51062 343.23126L342.245 344.4969Q342.72937 343.77814 343.1825 343.4344Q343.65125 343.09064 344.12 343.09064Q344.44812 343.09064 344.90125 343.3094L344.46375 344.29376Q344.19812 344.10626 343.87 344.10626Q343.3075 344.10626 342.71375 344.73126Q342.13562 345.34064 341.8075 346.95L341.27625 349.45L340.27625 349.45Z" fill-rule="nonzero"/><path fill="#000000" d="M29.550013 207.07812L20.956263 207.07812L20.956263 204.10938Q20.956263 203.10938 21.081263 202.57812Q21.253138 201.84375 21.690638 201.32812Q22.268763 200.64062 23.175013 200.3125Q24.065638 199.96875 25.206263 199.96875Q26.190638 199.96875 26.940638 200.20312Q27.690638 200.42188 28.190638 200.78125Q28.690638 201.14062 28.971888 201.57812Q29.253138 202.0 29.409388 202.59375Q29.550013 203.1875 29.550013 203.96875L29.550013 207.07812ZM28.534388 205.9375L28.534388 204.10938Q28.534388 203.25 28.378138 202.76562Q28.221888 202.28125 27.925013 202.0Q27.534388 201.59375 26.846888 201.375Q26.159388 201.14062 25.190638 201.14062Q23.846888 201.14062 23.128138 201.59375Q22.393763 202.03125 22.143763 202.65625Q21.971888 203.125 21.971888 204.125L21.971888 205.9375L28.534388 205.9375ZM22.175013 198.20312L20.956263 198.20312L20.956263 197.14062L22.175013 197.14062L22.175013 198.20312ZM29.550013 198.20312L23.331263 198.20312L23.331263 197.14062L29.550013 197.14062L29.550013 198.20312ZM27.690638 195.625L27.534388 194.59375Q28.159388 194.5 28.487513 194.10938Q28.815638 193.70312 28.815638 192.96875Q28.815638 192.25 28.534388 191.90625Q28.237513 191.54688 27.831263 191.54688Q27.471888 191.54688 27.268763 191.85938Q27.128138 192.07812 26.909388 192.9375Q26.612513 194.09375 26.409388 194.54688Q26.190638 194.98438 25.815638 195.21875Q25.440638 195.45312 24.971888 195.45312Q24.565638 195.45312 24.206263 195.26562Q23.846888 195.07812 23.612513 194.75Q23.440638 194.5 23.315638 194.07812Q23.190638 193.65625 23.190638 193.15625Q23.190638 192.4375 23.409388 191.89062Q23.612513 191.32812 23.971888 191.0625Q24.331263 190.79688 24.925013 190.70312L25.065638 191.73438Q24.596888 191.79688 24.331263 192.14062Q24.050013 192.46875 24.050013 193.09375Q24.050013 193.8125 24.300013 194.125Q24.534388 194.4375 24.862513 194.4375Q25.065638 194.4375 25.221888 194.3125Q25.393763 194.17188 25.503138 193.90625Q25.565638 193.75 25.768763 192.96875Q26.081263 191.84375 26.268763 191.40625Q26.456263 190.96875 26.815638 190.71875Q27.175013 190.46875 27.721888 190.46875Q28.253138 190.46875 28.721888 190.78125Q29.175013 191.07812 29.440638 191.65625Q29.690638 192.23438 29.690638 192.96875Q29.690638 194.1875 29.190638 194.82812Q28.675013 195.45312 27.690638 195.625ZM28.612513 185.90625L29.534388 185.75Q29.628138 186.20312 29.628138 186.54688Q29.628138 187.125 29.456263 187.4375Q29.268763 187.75 28.971888 187.89062Q28.675013 188.01562 27.721888 188.01562L24.143763 188.01562L24.143763 188.78125L23.331263 188.78125L23.331263 188.01562L21.784388 188.01562L21.159388 186.96875L23.331263 186.96875L23.331263 185.90625L24.143763 185.90625L24.143763 186.96875L27.784388 186.96875Q28.237513 186.96875 28.362513 186.92188Q28.487513 186.85938 28.565638 186.73438Q28.643763 186.60938 28.643763 186.375Q28.643763 186.1875 28.612513 185.90625ZM28.784388 181.14062Q29.284388 181.73438 29.487513 182.28125Q29.690638 182.8125 29.690638 183.4375Q29.690638 184.46875 29.190638 185.01562Q28.690638 185.5625 27.909388 185.5625Q27.456263 185.5625 27.081263 185.35938Q26.690638 185.15625 26.471888 184.8125Q26.237513 184.46875 26.128138 184.04688Q26.034388 183.75 25.956263 183.10938Q25.815638 181.84375 25.596888 181.23438Q25.378138 181.23438 25.331263 181.23438Q24.675013 181.23438 24.409388 181.53125Q24.065638 181.9375 24.065638 182.73438Q24.065638 183.46875 24.331263 183.82812Q24.581263 184.1875 25.237513 184.35938L25.096888 185.39062Q24.440638 185.25 24.034388 184.92188Q23.628138 184.59375 23.409388 183.98438Q23.190638 183.375 23.190638 182.57812Q23.190638 181.78125 23.378138 181.28125Q23.565638 180.78125 23.846888 180.54688Q24.128138 180.3125 24.565638 180.21875Q24.831263 180.17188 25.534388 180.17188L26.940638 180.17188Q28.409388 180.17188 28.800013 180.10938Q29.190638 180.03125 29.550013 179.82812L29.550013 180.9375Q29.221888 181.09375 28.784388 181.14062ZM26.425013 181.23438Q26.659388 181.8125 26.831263 182.95312Q26.925013 183.60938 27.050013 183.875Q27.159388 184.14062 27.378138 184.29688Q27.596888 184.4375 27.878138 184.4375Q28.300013 184.4375 28.581263 184.125Q28.862513 183.79688 28.862513 183.1875Q28.862513 182.57812 28.596888 182.10938Q28.331263 181.625 27.862513 181.40625Q27.503138 181.23438 26.815638 181.23438L26.425013 181.23438ZM21.550013 182.6875L22.550013 183.34375L22.550013 184.5625L20.909388 183.29688L20.909388 182.17188L22.550013 180.84375L22.550013 182.04688L21.550013 182.6875ZM29.550013 178.20312L23.331263 178.20312L23.331263 177.26562L24.206263 177.26562Q23.190638 176.57812 23.190638 175.28125Q23.190638 174.71875 23.393763 174.25Q23.596888 173.76562 23.925013 173.53125Q24.253138 173.29688 24.690638 173.20312Q24.987513 173.15625 25.721888 173.15625L29.550013 173.15625L29.550013 174.20312L25.768763 174.20312Q25.112513 174.20312 24.800013 174.32812Q24.487513 174.45312 24.300013 174.76562Q24.096888 175.07812 24.096888 175.5Q24.096888 176.17188 24.534388 176.67188Q24.956263 177.15625 26.143763 177.15625L29.550013 177.15625L29.550013 178.20312ZM27.268763 167.14062L27.409388 166.10938Q28.471888 166.28125 29.081263 166.98438Q29.690638 167.6875 29.690638 168.70312Q29.690638 169.98438 28.862513 170.76562Q28.018763 171.53125 26.456263 171.53125Q25.456263 171.53125 24.706263 171.20312Q23.940638 170.85938 23.565638 170.1875Q23.190638 169.5 23.190638 168.6875Q23.190638 167.6875 23.706263 167.04688Q24.206263 166.39062 25.159388 166.20312L25.315638 167.23438Q24.690638 167.375 24.378138 167.75Q24.050013 168.125 24.050013 168.65625Q24.050013 169.45312 24.628138 169.95312Q25.190638 170.45312 26.425013 170.45312Q27.690638 170.45312 28.253138 169.96875Q28.815638 169.48438 28.815638 168.71875Q28.815638 168.09375 28.440638 167.6875Q28.065638 167.26562 27.268763 167.14062ZM22.175013 165.20312L20.956263 165.20312L20.956263 164.14062L22.175013 164.14062L22.175013 165.20312ZM29.550013 165.20312L23.331263 165.20312L23.331263 164.14062L29.550013 164.14062L29.550013 165.20312ZM28.784388 158.14062Q29.284388 158.73438 29.487513 159.28125Q29.690638 159.8125 29.690638 160.4375Q29.690638 161.46875 29.190638 162.01562Q28.690638 162.5625 27.909388 162.5625Q27.456263 162.5625 27.081263 162.35938Q26.690638 162.15625 26.471888 161.8125Q26.237513 161.46875 26.128138 161.04688Q26.034388 160.75 25.956263 160.10938Q25.815638 158.84375 25.596888 158.23438Q25.378138 158.23438 25.331263 158.23438Q24.675013 158.23438 24.409388 158.53125Q24.065638 158.9375 24.065638 159.73438Q24.065638 160.46875 24.331263 160.82812Q24.581263 161.1875 25.237513 161.35938L25.096888 162.39062Q24.440638 162.25 24.034388 161.92188Q23.628138 161.59375 23.409388 160.98438Q23.190638 160.375 23.190638 159.57812Q23.190638 158.78125 23.378138 158.28125Q23.565638 157.78125 23.846888 157.54688Q24.128138 157.3125 24.565638 157.21875Q24.831263 157.17188 25.534388 157.17188L26.940638 157.17188Q28.409388 157.17188 28.800013 157.10938Q29.190638 157.03125 29.550013 156.82812L29.550013 157.9375Q29.221888 158.09375 28.784388 158.14062ZM26.425013 158.23438Q26.659388 158.8125 26.831263 159.95312Q26.925013 160.60938 27.050013 160.875Q27.159388 161.14062 27.378138 161.29688Q27.596888 161.4375 27.878138 161.4375Q28.300013 161.4375 28.581263 161.125Q28.862513 160.79688 28.862513 160.1875Q28.862513 159.57812 28.596888 159.10938Q28.331263 158.625 27.862513 158.40625Q27.503138 158.23438 26.815638 158.23438L26.425013 158.23438ZM32.08126 153.1875Q30.971888 154.0625 29.503138 154.67188Q28.018763 155.26562 26.440638 155.26562Q25.050013 155.26562 23.768763 154.82812Q22.284388 154.29688 20.815638 153.1875L20.815638 152.4375Q22.034388 153.14062 22.550013 153.375Q23.362513 153.73438 24.237513 153.9375Q25.331263 154.1875 26.440638 154.1875Q29.268763 154.1875 32.08126 152.4375L32.08126 153.1875ZM27.268763 147.14062L27.409388 146.10938Q28.471888 146.28125 29.081263 146.98438Q29.690638 147.6875 29.690638 148.70312Q29.690638 149.98438 28.862513 150.76562Q28.018763 151.53125 26.456263 151.53125Q25.456263 151.53125 24.706263 151.20312Q23.940638 150.85938 23.565638 150.1875Q23.190638 149.5 23.190638 148.6875Q23.190638 147.6875 23.706263 147.04688Q24.206263 146.39062 25.159388 146.20312L25.315638 147.23438Q24.690638 147.375 24.378138 147.75Q24.050013 148.125 24.050013 148.65625Q24.050013 149.45312 24.628138 149.95312Q25.190638 150.45312 26.425013 150.45312Q27.690638 150.45312 28.253138 149.96875Q28.815638 149.48438 28.815638 148.71875Q28.815638 148.09375 28.440638 147.6875Q28.065638 147.26562 27.268763 147.14062ZM29.550013 145.20312L23.331263 145.20312L23.331263 144.26562L24.206263 144.26562Q23.737513 143.96875 23.471888 143.48438Q23.190638 143.0 23.190638 142.375Q23.190638 141.6875 23.471888 141.25Q23.753138 140.79688 24.268763 140.625Q23.190638 139.875 23.190638 138.70312Q23.190638 137.76562 23.706263 137.28125Q24.206263 136.78125 25.284388 136.78125L29.550013 136.78125L29.550013 137.82812L25.628138 137.82812Q25.003138 137.82812 24.721888 137.9375Q24.440638 138.03125 24.268763 138.29688Q24.096888 138.5625 24.096888 138.9375Q24.096888 139.59375 24.534388 140.03125Q24.971888 140.45312 25.940638 140.45312L29.550013 140.45312L29.550013 141.51562L25.503138 141.51562Q24.800013 141.51562 24.456263 141.78125Q24.096888 142.03125 24.096888 142.60938Q24.096888 143.0625 24.331263 143.4375Q24.565638 143.8125 25.018763 143.98438Q25.471888 144.15625 26.315638 144.15625L29.550013 144.15625L29.550013 145.20312ZM32.08126 133.51562L32.08126 134.26562Q29.268763 132.51562 26.440638 132.51562Q25.346888 132.51562 24.253138 132.76562Q23.378138 132.96875 22.565638 133.32812Q22.050013 133.5625 20.815638 134.26562L20.815638 133.51562Q22.284388 132.42188 23.768763 131.89062Q25.050013 131.4375 26.440638 131.4375Q28.018763 131.4375 29.503138 132.04688Q30.971888 132.65625 32.08126 133.51562Z" fill-rule="nonzero"/><path fill="#000000" d="M65.05 300.21564Q65.05 298.6844 65.3625 297.7625Q65.675 296.825 66.28438 296.325Q66.90938 295.825 67.84688 295.825Q68.53438 295.825 69.05 296.10626Q69.58125 296.3875 69.925 296.91876Q70.26875 297.4344 70.45625 298.1844Q70.64375 298.9344 70.64375 300.21564Q70.64375 301.73126 70.33125 302.65314Q70.03438 303.575 69.40938 304.09064Q68.8 304.59064 67.84688 304.59064Q66.6125 304.59064 65.89375 303.7Q65.05 302.6375 65.05 300.21564ZM66.12813 300.21564Q66.12813 302.325 66.62813 303.02814Q67.12813 303.73126 67.84688 303.73126Q68.58125 303.73126 69.06563 303.02814Q69.56563 302.325 69.56563 300.21564Q69.56563 298.09064 69.06563 297.40314Q68.58125 296.7 67.83125 296.7Q67.1125 296.7 66.675 297.3094Q66.12813 298.09064 66.12813 300.21564ZM72.64375 304.45L72.64375 303.2469L73.84688 303.2469L73.84688 304.45L72.64375 304.45ZM75.05 300.21564Q75.05 298.6844 75.3625 297.7625Q75.675 296.825 76.28438 296.325Q76.90938 295.825 77.84688 295.825Q78.53438 295.825 79.05 296.10626Q79.58125 296.3875 79.925 296.91876Q80.26875 297.4344 80.45625 298.1844Q80.64375 298.9344 80.64375 300.21564Q80.64375 301.73126 80.33125 302.65314Q80.03438 303.575 79.40938 304.09064Q78.8 304.59064 77.84688 304.59064Q76.6125 304.59064 75.89375 303.7Q75.05 302.6375 75.05 300.21564ZM76.12813 300.21564Q76.12813 302.325 76.62813 303.02814Q77.12813 303.73126 77.84688 303.73126Q78.58125 303.73126 79.06563 303.02814Q79.56563 302.325 79.56563 300.21564Q79.56563 298.09064 79.06563 297.40314Q78.58125 296.7 77.83125 296.7Q77.1125 296.7 76.675 297.3094Q76.12813 298.09064 76.12813 300.21564ZM82.05 300.21564Q82.05 298.6844 82.3625 297.7625Q82.675 296.825 83.28438 296.325Q83.90938 295.825 84.84688 295.825Q85.53438 295.825 86.05 296.10626Q86.58125 296.3875 86.925 296.91876Q87.26875 297.4344 87.45625 298.1844Q87.64375 298.9344 87.64375 300.21564Q87.64375 301.73126 87.33125 302.65314Q87.03438 303.575 86.40938 304.09064Q85.8 304.59064 84.84688 304.59064Q83.6125 304.59064 82.89375 303.7Q82.05 302.6375 82.05 300.21564ZM83.12813 300.21564Q83.12813 302.325 83.62813 303.02814Q84.12813 303.73126 84.84688 303.73126Q85.58125 303.73126 86.06563 303.02814Q86.56563 302.325 86.56563 300.21564Q86.56563 298.09064 86.06563 297.40314Q85.58125 296.7 84.83125 296.7Q84.1125 296.7 83.675 297.3094Q83.12813 298.09064 83.12813 300.21564Z" fill-rule="nonzero"/><path fill="#000000" d="M58.05 210.56667L59.159374 210.47292Q59.284374 211.28542 59.721874 211.69167Q60.175 212.09792 60.815624 212.09792Q61.565624 212.09792 62.096874 211.51979Q62.628124 210.94167 62.628124 210.00417Q62.628124 209.09792 62.1125 208.58229Q61.6125 208.05104 60.784374 208.05104Q60.284374 208.05104 59.8625 208.28542Q59.45625 208.51979 59.221874 208.87917L58.2375 208.75417L59.065624 204.34792L63.346874 204.34792L63.346874 205.34792L59.909374 205.34792L59.45625 207.66042Q60.221874 207.11354 61.065624 207.11354Q62.190624 207.11354 62.95625 207.89479Q63.7375 208.67604 63.7375 209.91042Q63.7375 211.06667 63.065624 211.92604Q62.2375 212.95729 60.815624 212.95729Q59.64375 212.95729 58.89375 212.30104Q58.159374 211.64479 58.05 210.56667ZM65.05 208.58229Q65.05 207.05104 65.3625 206.12917Q65.675 205.19167 66.28438 204.69167Q66.90938 204.19167 67.84688 204.19167Q68.53438 204.19167 69.05 204.47292Q69.58125 204.75417 69.925 205.28542Q70.26875 205.80104 70.45625 206.55104Q70.64375 207.30104 70.64375 208.58229Q70.64375 210.09792 70.33125 211.01979Q70.03438 211.94167 69.40938 212.45729Q68.8 212.95729 67.84688 212.95729Q66.6125 212.95729 65.89375 212.06667Q65.05 211.00417 65.05 208.58229ZM66.12813 208.58229Q66.12813 210.69167 66.62813 211.39479Q67.12813 212.09792 67.84688 212.09792Q68.58125 212.09792 69.06563 211.39479Q69.56563 210.69167 69.56563 208.58229Q69.56563 206.45729 69.06563 205.76979Q68.58125 205.06667 67.83125 205.06667Q67.1125 205.06667 66.675 205.67604Q66.12813 206.45729 66.12813 208.58229ZM72.64375 212.81667L72.64375 211.61354L73.84688 211.61354L73.84688 212.81667L72.64375 212.81667ZM75.05 208.58229Q75.05 207.05104 75.3625 206.12917Q75.675 205.19167 76.28438 204.69167Q76.90938 204.19167 77.84688 204.19167Q78.53438 204.19167 79.05 204.47292Q79.58125 204.75417 79.925 205.28542Q80.26875 205.80104 80.45625 206.55104Q80.64375 207.30104 80.64375 208.58229Q80.64375 210.09792 80.33125 211.01979Q80.03438 211.94167 79.40938 212.45729Q78.8 212.95729 77.84688 212.95729Q76.6125 212.95729 75.89375 212.06667Q75.05 211.00417 75.05 208.58229ZM76.12813 208.58229Q76.12813 210.69167 76.62813 211.39479Q77.12813 212.09792 77.84688 212.09792Q78.58125 212.09792 79.06563 211.39479Q79.56563 210.69167 79.56563 208.58229Q79.56563 206.45729 79.06563 205.76979Q78.58125 205.06667 77.83125 205.06667Q77.1125 205.06667 76.675 205.67604Q76.12813 206.45729 76.12813 208.58229ZM82.05 208.58229Q82.05 207.05104 82.3625 206.12917Q82.675 205.19167 83.28438 204.69167Q83.90938 204.19167 84.84688 204.19167Q85.53438 204.19167 86.05 204.47292Q86.58125 204.75417 86.925 205.28542Q87.26875 205.80104 87.45625 206.55104Q87.64375 207.30104 87.64375 208.58229Q87.64375 210.09792 87.33125 211.01979Q87.03438 211.94167 86.40938 212.45729Q85.8 212.95729 84.84688 212.95729Q83.6125 212.95729 82.89375 212.06667Q82.05 211.00417 82.05 208.58229ZM83.12813 208.58229Q83.12813 210.69167 83.62813 211.39479Q84.12813 212.09792 84.84688 212.09792Q85.58125 212.09792 86.06563 211.39479Q86.56563 210.69167 86.56563 208.58229Q86.56563 206.45729 86.06563 205.76979Q85.58125 205.06667 84.83125 205.06667Q84.1125 205.06667 83.675 205.67604Q83.12813 206.45729 83.12813 208.58229Z" fill-rule="nonzero"/><path fill="#000000" d="M55.01875 121.183334L53.971874 121.183334L53.971874 114.464584Q53.58125 114.82396 52.95625 115.19896Q52.346874 115.558334 51.8625 115.73021L51.8625 114.714584Q52.7375 114.29271 53.39375 113.714584Q54.065624 113.120834 54.346874 112.558334L55.01875 112.558334L55.01875 121.183334ZM58.05 116.94896Q58.05 115.41771 58.3625 114.495834Q58.675 113.558334 59.284374 113.058334Q59.909374 112.558334 60.846874 112.558334Q61.534374 112.558334 62.05 112.839584Q62.58125 113.120834 62.925 113.652084Q63.26875 114.16771 63.45625 114.91771Q63.64375 115.66771 63.64375 116.94896Q63.64375 118.464584 63.33125 119.38646Q63.034374 120.308334 62.409374 120.82396Q61.8 121.32396 60.846874 121.32396Q59.6125 121.32396 58.89375 120.433334Q58.05 119.370834 58.05 116.94896ZM59.128124 116.94896Q59.128124 119.058334 59.628124 119.76146Q60.128124 120.464584 60.846874 120.464584Q61.58125 120.464584 62.065624 119.76146Q62.565624 119.058334 62.565624 116.94896Q62.565624 114.82396 62.065624 114.13646Q61.58125 113.433334 60.83125 113.433334Q60.1125 113.433334 59.675 114.04271Q59.128124 114.82396 59.128124 116.94896ZM65.05 116.94896Q65.05 115.41771 65.3625 114.495834Q65.675 113.558334 66.28438 113.058334Q66.90938 112.558334 67.84688 112.558334Q68.53438 112.558334 69.05 112.839584Q69.58125 113.120834 69.925 113.652084Q70.26875 114.16771 70.45625 114.91771Q70.64375 115.66771 70.64375 116.94896Q70.64375 118.464584 70.33125 119.38646Q70.03438 120.308334 69.40938 120.82396Q68.8 121.32396 67.84688 121.32396Q66.6125 121.32396 65.89375 120.433334Q65.05 119.370834 65.05 116.94896ZM66.12813 116.94896Q66.12813 119.058334 66.62813 119.76146Q67.12813 120.464584 67.84688 120.464584Q68.58125 120.464584 69.06563 119.76146Q69.56563 119.058334 69.56563 116.94896Q69.56563 114.82396 69.06563 114.13646Q68.58125 113.433334 67.83125 113.433334Q67.1125 113.433334 66.675 114.04271Q66.12813 114.82396 66.12813 116.94896ZM72.64375 121.183334L72.64375 119.98021L73.84688 119.98021L73.84688 121.183334L72.64375 121.183334ZM75.05 116.94896Q75.05 115.41771 75.3625 114.495834Q75.675 113.558334 76.28438 113.058334Q76.90938 112.558334 77.84688 112.558334Q78.53438 112.558334 79.05 112.839584Q79.58125 113.120834 79.925 113.652084Q80.26875 114.16771 80.45625 114.91771Q80.64375 115.66771 80.64375 116.94896Q80.64375 118.464584 80.33125 119.38646Q80.03438 120.308334 79.40938 120.82396Q78.8 121.32396 77.84688 121.32396Q76.6125 121.32396 75.89375 120.433334Q75.05 119.370834 75.05 116.94896ZM76.12813 116.94896Q76.12813 119.058334 76.62813 119.76146Q77.12813 120.464584 77.84688 120.464584Q78.58125 120.464584 79.06563 119.76146Q79.56563 119.058334 79.56563 116.94896Q79.56563 114.82396 79.06563 114.13646Q78.58125 113.433334 77.83125 113.433334Q77.1125 113.433334 76.675 114.04271Q76.12813 114.82396 76.12813 116.94896ZM82.05 116.94896Q82.05 115.41771 82.3625 114.495834Q82.675 113.558334 83.28438 113.058334Q83.90938 112.558334 84.84688 112.558334Q85.53438 112.558334 86.05 112.839584Q86.58125 113.120834 86.925 113.652084Q87.26875 114.16771 87.45625 114.91771Q87.64375 115.66771 87.64375 116.94896Q87.64375 118.464584 87.33125 119.38646Q87.03438 120.308334 86.40938 120.82396Q85.8 121.32396 84.84688 121.32396Q83.6125 121.32396 82.89375 120.433334Q82.05 119.370834 82.05 116.94896ZM83.12813 116.94896Q83.12813 119.058334 83.62813 119.76146Q84.12813 120.464584 84.84688 120.464584Q85.58125 120.464584 86.06563 119.76146Q86.56563 119.058334 86.56563 116.94896Q86.56563 114.82396 86.06563 114.13646Q85.58125 113.433334 84.83125 113.433334Q84.1125 113.433334 83.675 114.04271Q83.12813 114.82396 83.12813 116.94896Z" fill-rule="nonzero"/><path fill="#000000" d="M55.01875 29.55L53.971874 29.55L53.971874 22.83125Q53.58125 23.190624 52.95625 23.565624Q52.346874 23.925 51.8625 24.096874L51.8625 23.08125Q52.7375 22.659374 53.39375 22.08125Q54.065624 21.4875 54.346874 20.925L55.01875 20.925L55.01875 29.55ZM58.05 27.3L59.159374 27.20625Q59.284374 28.01875 59.721874 28.425Q60.175 28.83125 60.815624 28.83125Q61.565624 28.83125 62.096874 28.253124Q62.628124 27.675 62.628124 26.7375Q62.628124 25.83125 62.1125 25.315624Q61.6125 24.784374 60.784374 24.784374Q60.284374 24.784374 59.8625 25.01875Q59.45625 25.253124 59.221874 25.6125L58.2375 25.4875L59.065624 21.08125L63.346874 21.08125L63.346874 22.08125L59.909374 22.08125L59.45625 24.39375Q60.221874 23.846874 61.065624 23.846874Q62.190624 23.846874 62.95625 24.628124Q63.7375 25.409374 63.7375 26.64375Q63.7375 27.8 63.065624 28.659374Q62.2375 29.690624 60.815624 29.690624Q59.64375 29.690624 58.89375 29.034374Q58.159374 28.378124 58.05 27.3ZM65.05 25.315624Q65.05 23.784374 65.3625 22.8625Q65.675 21.925 66.28438 21.425Q66.90938 20.925 67.84688 20.925Q68.53438 20.925 69.05 21.20625Q69.58125 21.4875 69.925 22.01875Q70.26875 22.534374 70.45625 23.284374Q70.64375 24.034374 70.64375 25.315624Q70.64375 26.83125 70.33125 27.753124Q70.03438 28.675 69.40938 29.190624Q68.8 29.690624 67.84688 29.690624Q66.6125 29.690624 65.89375 28.8Q65.05 27.7375 65.05 25.315624ZM66.12813 25.315624Q66.12813 27.425 66.62813 28.128124Q67.12813 28.83125 67.84688 28.83125Q68.58125 28.83125 69.06563 28.128124Q69.56563 27.425 69.56563 25.315624Q69.56563 23.190624 69.06563 22.503124Q68.58125 21.8 67.83125 21.8Q67.1125 21.8 66.675 22.409374Q66.12813 23.190624 66.12813 25.315624ZM72.64375 29.55L72.64375 28.346874L73.84688 28.346874L73.84688 29.55L72.64375 29.55ZM75.05 25.315624Q75.05 23.784374 75.3625 22.8625Q75.675 21.925 76.28438 21.425Q76.90938 20.925 77.84688 20.925Q78.53438 20.925 79.05 21.20625Q79.58125 21.4875 79.925 22.01875Q80.26875 22.534374 80.45625 23.284374Q80.64375 24.034374 80.64375 25.315624Q80.64375 26.83125 80.33125 27.753124Q80.03438 28.675 79.40938 29.190624Q78.8 29.690624 77.84688 29.690624Q76.6125 29.690624 75.89375 28.8Q75.05 27.7375 75.05 25.315624ZM76.12813 25.315624Q76.12813 27.425 76.62813 28.128124Q77.12813 28.83125 77.84688 28.83125Q78.58125 28.83125 79.06563 28.128124Q79.56563 27.425 79.56563 25.315624Q79.56563 23.190624 79.06563 22.503124Q78.58125 21.8 77.83125 21.8Q77.1125 21.8 76.675 22.409374Q76.12813 23.190624 76.12813 25.315624ZM82.05 25.315624Q82.05 23.784374 82.3625 22.8625Q82.675 21.925 83.28438 21.425Q83.90938 20.925 84.84688 20.925Q85.53438 20.925 86.05 21.20625Q86.58125 21.4875 86.925 22.01875Q87.26875 22.534374 87.45625 23.284374Q87.64375 24.034374 87.64375 25.315624Q87.64375 26.83125 87.33125 27.753124Q87.03438 28.675 86.40938 29.190624Q85.8 29.690624 84.84688 29.690624Q83.6125 29.690624 82.89375 28.8Q82.05 27.7375 82.05 25.315624ZM83.12813 25.315624Q83.12813 27.425 83.62813 28.128124Q84.12813 28.83125 84.84688 28.83125Q85.58125 28.83125 86.06563 28.128124Q86.56563 27.425 86.56563 25.315624Q86.56563 23.190624 86.06563 22.503124Q85.58125 21.8 84.83125 21.8Q84.1125 21.8 83.675 22.409374Q83.12813 23.190624 83.12813 25.315624Z" fill-rule="nonzero"/><path fill="#000000" d="M91.6125 309.98126L91.6125 308.96564L97.175 308.96564L97.175 309.79376Q96.3625 310.66876 95.55 312.1219Q94.75313 313.5594 94.31563 315.09064Q93.9875 316.16876 93.90938 317.45L92.81563 317.45Q92.83125 316.4344 93.20625 314.9969Q93.59688 313.5594 94.3 312.23126Q95.01875 310.90314 95.83125 309.98126L91.6125 309.98126Z" fill-rule="nonzero"/><path fill="#000000" d="M174.103 312.79376Q173.44675 312.54376 173.11862 312.10626Q172.80612 311.65314 172.80612 311.04376Q172.80612 310.10626 173.478 309.46564Q174.1655 308.825 175.27487 308.825Q176.39987 308.825 177.08737 309.48126Q177.77487 310.1375 177.77487 311.075Q177.77487 311.66876 177.46237 312.10626Q177.14987 312.54376 176.50925 312.79376Q177.30612 313.04376 177.71237 313.6219Q178.11862 314.2 178.11862 314.9969Q178.11862 316.09064 177.33737 316.84064Q176.57175 317.59064 175.2905 317.59064Q174.02487 317.59064 173.24362 316.84064Q172.46237 316.09064 172.46237 314.96564Q172.46237 314.1219 172.88425 313.5594Q173.32175 312.9969 174.103 312.79376ZM173.88425 310.9969Q173.88425 311.60626 174.27487 311.9969Q174.68112 312.3875 175.30612 312.3875Q175.9155 312.3875 176.30612 312.0125Q176.69675 311.6219 176.69675 311.0594Q176.69675 310.48126 176.2905 310.09064Q175.88425 309.6844 175.2905 309.6844Q174.68112 309.6844 174.27487 310.075Q173.88425 310.46564 173.88425 310.9969ZM173.55612 314.96564Q173.55612 315.41876 173.75925 315.84064Q173.978 316.2625 174.39987 316.4969Q174.82175 316.73126 175.30612 316.73126Q176.05612 316.73126 176.5405 316.2469Q177.0405 315.7625 177.0405 315.0125Q177.0405 314.2469 176.5405 313.7469Q176.0405 313.2469 175.27487 313.2469Q174.52487 313.2469 174.0405 313.7469Q173.55612 314.23126 173.55612 314.96564Z" fill-rule="nonzero"/><path fill="#000000" d="M253.56226 315.46564L254.57788 315.3719Q254.70288 316.09064 255.06226 316.41876Q255.43726 316.73126 255.99976 316.73126Q256.48413 316.73126 256.8435 316.5125Q257.2185 316.27814 257.45288 315.91876Q257.68726 315.54376 257.8435 314.91876Q257.99976 314.27814 257.99976 313.6219Q257.99976 313.54376 257.99976 313.40314Q257.68726 313.90314 257.14038 314.23126Q256.5935 314.54376 255.95288 314.54376Q254.87476 314.54376 254.14038 313.77814Q253.406 312.9969 253.406 311.73126Q253.406 310.41876 254.17163 309.6219Q254.95288 308.825 256.10913 308.825Q256.93726 308.825 257.62476 309.27814Q258.32788 309.73126 258.68726 310.575Q259.04663 311.40314 259.04663 312.98126Q259.04663 314.6219 258.68726 315.60626Q258.3435 316.575 257.62476 317.09064Q256.92163 317.59064 255.98413 317.59064Q254.9685 317.59064 254.32788 317.04376Q253.68726 316.48126 253.56226 315.46564ZM257.87476 311.66876Q257.87476 310.7625 257.39038 310.23126Q256.92163 309.7 256.23413 309.7Q255.531 309.7 254.99976 310.27814Q254.48413 310.84064 254.48413 311.7625Q254.48413 312.575 254.98413 313.09064Q255.48413 313.60626 256.20288 313.60626Q256.93726 313.60626 257.406 313.09064Q257.87476 312.575 257.87476 311.66876Z" fill-rule="nonzero"/><path fill="#000000" d="M334.80276 317.45L333.7559 317.45L333.7559 310.73126Q333.36526 311.09064 332.74026 311.46564Q332.1309 311.825 331.6465 311.9969L331.6465 310.98126Q332.5215 310.5594 333.17776 309.98126Q333.84964 309.3875 334.1309 308.825L334.80276 308.825L334.80276 317.45ZM337.834 313.21564Q337.834 311.6844 338.1465 310.7625Q338.459 309.825 339.0684 309.325Q339.6934 308.825 340.6309 308.825Q341.3184 308.825 341.834 309.10626Q342.36526 309.3875 342.709 309.91876Q343.05276 310.4344 343.24026 311.1844Q343.42776 311.9344 343.42776 313.21564Q343.42776 314.73126 343.11526 315.65314Q342.8184 316.575 342.1934 317.09064Q341.584 317.59064 340.6309 317.59064Q339.3965 317.59064 338.67776 316.7Q337.834 315.6375 337.834 313.21564ZM338.91214 313.21564Q338.91214 315.325 339.41214 316.02814Q339.91214 316.73126 340.6309 316.73126Q341.36526 316.73126 341.84964 316.02814Q342.34964 315.325 342.34964 313.21564Q342.34964 311.09064 341.84964 310.40314Q341.36526 309.7 340.61526 309.7Q339.8965 309.7 339.459 310.3094Q338.91214 311.09064 338.91214 313.21564Z" fill-rule="nonzero"/><path fill="#000000" d="M415.73074 317.45L414.68387 317.45L414.68387 310.73126Q414.29324 311.09064 413.66824 311.46564Q413.05887 311.825 412.5745 311.9969L412.5745 310.98126Q413.4495 310.5594 414.10574 309.98126Q414.77762 309.3875 415.05887 308.825L415.73074 308.825L415.73074 317.45ZM422.73074 317.45L421.68387 317.45L421.68387 310.73126Q421.29324 311.09064 420.66824 311.46564Q420.05887 311.825 419.5745 311.9969L419.5745 310.98126Q420.4495 310.5594 421.10574 309.98126Q421.77762 309.3875 422.05887 308.825L422.73074 308.825L422.73074 317.45Z" fill-rule="nonzero"/><path fill="#000000" d="M496.65875 317.45L495.61188 317.45L495.61188 310.73126Q495.22125 311.09064 494.59625 311.46564Q493.98688 311.825 493.5025 311.9969L493.5025 310.98126Q494.3775 310.5594 495.03375 309.98126Q495.70563 309.3875 495.98688 308.825L496.65875 308.825L496.65875 317.45ZM505.23688 316.4344L505.23688 317.45L499.54938 317.45Q499.54938 317.075 499.67438 316.71564Q499.89313 316.1375 500.36188 315.575Q500.84625 315.0125 501.7525 314.27814Q503.15875 313.1219 503.64313 312.45Q504.14313 311.77814 504.14313 311.1844Q504.14313 310.5594 503.69 310.1375Q503.23688 309.7 502.51813 309.7Q501.7525 309.7 501.29938 310.15314Q500.84625 310.60626 500.83063 311.41876L499.7525 311.3094Q499.86188 310.09064 500.58063 309.46564Q501.315 308.825 502.54938 308.825Q503.78375 308.825 504.5025 309.5125Q505.22125 310.2 505.22125 311.21564Q505.22125 311.73126 505.0025 312.23126Q504.79938 312.71564 504.29938 313.27814Q503.815 313.825 502.69 314.77814Q501.73688 315.575 501.45563 315.8719Q501.19 316.15314 501.01813 316.4344L505.23688 316.4344Z" fill-rule="nonzero"/><path stroke="#4285f4" stroke-width="4.0" stroke-linecap="butt" d="M521.45 25.55L533.45 25.55" fill-rule="nonzero"/><path fill="#1a1a1a" d="M542.325 29.55L542.325 20.95625L545.5594 20.95625Q546.54376 20.95625 547.1375 21.221874Q547.73126 21.4875 548.0594 22.034374Q548.40314 22.565624 548.40314 23.159374Q548.40314 23.70625 548.10626 24.190624Q547.8094 24.675 547.2 24.971874Q547.98126 25.20625 548.3875 25.76875Q548.8094 26.315624 548.8094 27.065624Q548.8094 27.659374 548.5594 28.190624Q548.3094 28.70625 547.9344 28.9875Q547.5594 29.26875 546.98126 29.409374Q546.41876 29.55 545.60626 29.55L542.325 29.55ZM543.46564 24.565624L545.325 24.565624Q546.075 24.565624 546.40314 24.471874Q546.84064 24.346874 547.0594 24.05Q547.27814 23.7375 547.27814 23.284374Q547.27814 22.8625 547.075 22.534374Q546.8719 22.20625 546.48126 22.096874Q546.10626 21.971874 545.1844 21.971874L543.46564 21.971874L543.46564 24.565624ZM543.46564 28.534374L545.60626 28.534374Q546.15314 28.534374 546.3719 28.4875Q546.77814 28.425 547.02814 28.26875Q547.29376 28.096874 547.46564 27.784374Q547.6375 27.471874 547.6375 27.065624Q547.6375 26.58125 547.3875 26.221874Q547.15314 25.8625 546.71564 25.721874Q546.27814 25.58125 545.45 25.58125L543.46564 25.58125L543.46564 28.534374ZM551.8719 29.55L549.59064 20.95625L550.7625 20.95625L552.075 26.596874Q552.27814 27.471874 552.4344 28.346874Q552.7625 26.971874 552.825 26.753124L554.45 20.95625L555.825 20.95625L557.0594 25.3Q557.5125 26.925 557.73126 28.346874Q557.8875 27.534374 558.15314 26.471874L559.4969 20.95625L560.6375 20.95625L558.29376 29.55L557.1844 29.55L555.3875 23.003124Q555.15314 22.190624 555.10626 22.003124Q554.98126 22.58125 554.85626 23.003124L553.04376 29.55L551.8719 29.55ZM564.91876 29.55L563.8719 29.55L563.8719 22.83125Q563.48126 23.190624 562.85626 23.565624Q562.2469 23.925 561.7625 24.096874L561.7625 23.08125Q562.6375 22.659374 563.29376 22.08125Q563.96564 21.4875 564.2469 20.925L564.91876 20.925L564.91876 29.55ZM573.4969 28.534374L573.4969 29.55L567.8094 29.55Q567.8094 29.175 567.9344 28.815624Q568.15314 28.2375 568.6219 27.675Q569.10626 27.1125 570.0125 26.378124Q571.41876 25.221874 571.90314 24.55Q572.40314 23.878124 572.40314 23.284374Q572.40314 22.659374 571.95 22.2375Q571.4969 21.8 570.77814 21.8Q570.0125 21.8 569.5594 22.253124Q569.10626 22.70625 569.09064 23.51875L568.0125 23.409374Q568.1219 22.190624 568.84064 21.565624Q569.575 20.925 570.8094 20.925Q572.04376 20.925 572.7625 21.6125Q573.48126 22.3 573.48126 23.315624Q573.48126 23.83125 573.2625 24.33125Q573.0594 24.815624 572.5594 25.378124Q572.075 25.925 570.95 26.878124Q569.9969 27.675 569.71564 27.971874Q569.45 28.253124 569.27814 28.534374L573.4969 28.534374ZM574.95 27.3L576.0594 27.20625Q576.1844 28.01875 576.6219 28.425Q577.075 28.83125 577.71564 28.83125Q578.46564 28.83125 578.9969 28.253124Q579.52814 27.675 579.52814 26.7375Q579.52814 25.83125 579.0125 25.315624Q578.5125 24.784374 577.6844 24.784374Q577.1844 24.784374 576.7625 25.01875Q576.35626 25.253124 576.1219 25.6125L575.1375 25.4875L575.96564 21.08125L580.2469 21.08125L580.2469 22.08125L576.8094 22.08125L576.35626 24.39375Q577.1219 23.846874 577.96564 23.846874Q579.09064 23.846874 579.85626 24.628124Q580.6375 25.409374 580.6375 26.64375Q580.6375 27.8 579.96564 28.659374Q579.1375 29.690624 577.71564 29.690624Q576.54376 29.690624 575.79376 29.034374Q575.0594 28.378124 574.95 27.3Z" fill-rule="nonzero"/><path stroke="#ea4335" stroke-width="4.0" stroke-linecap="butt" d="M521.45 49.55L533.45 49.55" fill-rule="nonzero"/><path fill="#1a1a1a" d="M542.325 53.55L542.325 44.95625L545.5594 44.95625Q546.54376 44.95625 547.1375 45.221874Q547.73126 45.4875 548.0594 46.034374Q548.40314 46.565624 548.40314 47.159374Q548.40314 47.70625 548.10626 48.190624Q547.8094 48.675 547.2 48.971874Q547.98126 49.20625 548.3875 49.76875Q548.8094 50.315624 548.8094 51.065624Q548.8094 51.659374 548.5594 52.190624Q548.3094 52.70625 547.9344 52.9875Q547.5594 53.26875 546.98126 53.409374Q546.41876 53.55 545.60626 53.55L542.325 53.55ZM543.46564 48.565624L545.325 48.565624Q546.075 48.565624 546.40314 48.471874Q546.84064 48.346874 547.0594 48.05Q547.27814 47.7375 547.27814 47.284374Q547.27814 46.8625 547.075 46.534374Q546.8719 46.20625 546.48126 46.096874Q546.10626 45.971874 545.1844 45.971874L543.46564 45.971874L543.46564 48.565624ZM543.46564 52.534374L545.60626 52.534374Q546.15314 52.534374 546.3719 52.4875Q546.77814 52.425 547.02814 52.26875Q547.29376 52.096874 547.46564 51.784374Q547.6375 51.471874 547.6375 51.065624Q547.6375 50.58125 547.3875 50.221874Q547.15314 49.8625 546.71564 49.721874Q546.27814 49.58125 545.45 49.58125L543.46564 49.58125L543.46564 52.534374ZM551.8719 53.55L549.59064 44.95625L550.7625 44.95625L552.075 50.596874Q552.27814 51.471874 552.4344 52.346874Q552.7625 50.971874 552.825 50.753124L554.45 44.95625L555.825 44.95625L557.0594 49.3Q557.5125 50.925 557.73126 52.346874Q557.8875 51.534374 558.15314 50.471874L559.4969 44.95625L560.6375 44.95625L558.29376 53.55L557.1844 53.55L555.3875 47.003124Q555.15314 46.190624 555.10626 46.003124Q554.98126 46.58125 554.85626 47.003124L553.04376 53.55L551.8719 53.55ZM566.4969 52.534374L566.4969 53.55L560.8094 53.55Q560.8094 53.175 560.9344 52.815624Q561.15314 52.2375 561.6219 51.675Q562.10626 51.1125 563.0125 50.378124Q564.41876 49.221874 564.90314 48.55Q565.40314 47.878124 565.40314 47.284374Q565.40314 46.659374 564.95 46.2375Q564.4969 45.8 563.77814 45.8Q563.0125 45.8 562.5594 46.253124Q562.10626 46.70625 562.09064 47.51875L561.0125 47.409374Q561.1219 46.190624 561.84064 45.565624Q562.575 44.925 563.8094 44.925Q565.04376 44.925 565.7625 45.6125Q566.48126 46.3 566.48126 47.315624Q566.48126 47.83125 566.2625 48.33125Q566.0594 48.815624 565.5594 49.378124Q565.075 49.925 563.95 50.878124Q562.9969 51.675 562.71564 51.971874Q562.45 52.253124 562.27814 52.534374L566.4969 52.534374ZM567.95 51.3L569.0594 51.20625Q569.1844 52.01875 569.6219 52.425Q570.075 52.83125 570.71564 52.83125Q571.46564 52.83125 571.9969 52.253124Q572.52814 51.675 572.52814 50.7375Q572.52814 49.83125 572.0125 49.315624Q571.5125 48.784374 570.6844 48.784374Q570.1844 48.784374 569.7625 49.01875Q569.35626 49.253124 569.1219 49.6125L568.1375 49.4875L568.96564 45.08125L573.2469 45.08125L573.2469 46.08125L569.8094 46.08125L569.35626 48.39375Q570.1219 47.846874 570.96564 47.846874Q572.09064 47.846874 572.85626 48.628124Q573.6375 49.409374 573.6375 50.64375Q573.6375 51.8 572.96564 52.659374Q572.1375 53.690624 570.71564 53.690624Q569.54376 53.690624 568.79376 53.034374Q568.0594 52.378124 567.95 51.3ZM574.95 49.315624Q574.95 47.784374 575.2625 46.8625Q575.575 45.925 576.1844 45.425Q576.8094 44.925 577.7469 44.925Q578.4344 44.925 578.95 45.20625Q579.48126 45.4875 579.825 46.01875Q580.16876 46.534374 580.35626 47.284374Q580.54376 48.034374 580.54376 49.315624Q580.54376 50.83125 580.23126 51.753124Q579.9344 52.675 579.3094 53.190624Q578.7 53.690624 577.7469 53.690624Q576.5125 53.690624 575.79376 52.8Q574.95 51.7375 574.95 49.315624ZM576.02814 49.315624Q576.02814 51.425 576.52814 52.128124Q577.02814 52.83125 577.7469 52.83125Q578.48126 52.83125 578.96564 52.128124Q579.46564 51.425 579.46564 49.315624Q579.46564 47.190624 578.96564 46.503124Q578.48126 45.8 577.73126 45.8Q577.0125 45.8 576.575 46.409374Q576.02814 47.190624 576.02814 49.315624Z" fill-rule="nonzero"/></svg>